<svg width="116" height="90" viewBox="0 0 116 90" fill="none" xmlns="http://www.w3.org/2000/svg">
  <path d="M50.1899 9.30008L51.0399 8.90009C49.5499 7.97009 45.3799 6.90008 41.9199 5.83008L44.1199 6.70007C43.6499 6.99007 45.5299 7.79008 45.3899 8.14008C45.5499 7.33008 48.4799 8.89008 50.1899 9.30008Z" fill="#424242"/>
  <path d="M56.4198 9.89014L50.5498 8.43994L52.8698 9.42008L56.4198 9.89014Z" fill="#424242"/>
  <path d="M55.4102 10.8701C55.7111 11.0309 56.0256 11.1648 56.3502 11.2701C56.0462 11.1158 55.7321 10.9821 55.4102 10.8701Z" fill="#FC8156"/>
  <path d="M64.27 12.6999C61.618 12.0181 59.0126 11.1664 56.47 10.15C57.1179 10.4988 57.7857 10.8094 58.47 11.08C56.64 10.56 54.11 10.08 51.96 9.51001C52.76 10.26 54.05 10.37 55.41 10.85C55.06 10.65 54.9599 10.49 55.6199 10.56C57.5499 11.6499 59.03 11.37 60.84 12.3499L58.9399 11.9999C59.0399 12.5799 62.9399 12.6399 62.5699 13.4999C65.2499 13.6399 60.91 12.1999 64.27 12.6999Z" fill="#424242"/>
  <path d="M66.1502 13.53C65.9502 13.53 65.8902 13.6101 65.9302 13.6801C65.9702 13.7501 66.2302 13.6 66.1502 13.53Z" fill="#FC8156"/>
  <path d="M65.5399 14.1599C67.4899 14.8 70.5399 15.7201 71.2399 15.21C69.3199 14.11 68.7798 14.57 67.7598 14.57C67.1188 14.342 66.505 14.0435 65.9298 13.6799C65.5698 13.7499 64.9999 13.8099 65.5399 14.1599Z" fill="#424242"/>
  <path d="M74.8298 16.42L73.8298 16.25V15.79C73.3444 15.9966 72.8223 16.1031 72.2948 16.1031C71.7673 16.1031 71.2452 15.9966 70.7598 15.79C71.6898 16.43 72.1498 16.14 73.1498 16.6L74.8298 16.42Z" fill="#424242"/>
  <path d="M72.5599 13.31C71.3527 13.1456 70.1377 13.0455 68.9199 13.01C71.1899 13.25 74.8199 15.0098 74.5799 13.7999C73.8573 13.5762 73.1133 13.4288 72.3599 13.36L72.5599 13.31Z" fill="#424242"/>
  <path d="M74.71 13.8401C75.8165 14.3748 77.0076 14.7131 78.23 14.8401C77.14 14.5201 75.83 14.1401 74.71 13.8401Z" fill="#424242"/>
  <path d="M74.5801 13.8H74.7101L74.5801 13.73V13.8Z" fill="#FC8156"/>
  <path d="M79.3401 18.2699L76.3901 17.1699L77.0701 17.5799L79.3401 18.2699Z" fill="#424242"/>
  <path d="M76.2903 15.3901C78.6703 16.2001 75.1102 14.5201 77.3802 15.2101C78.0102 15.3301 74.0403 14.2101 73.7803 14.4601C74.3403 14.7501 76.1903 14.8101 76.2903 15.3901Z" fill="#424242"/>
  <path d="M83.71 19.7C84.71 19.7 86.15 20.8 87.41 21.03L87.9999 20.8601C85.1699 20.6401 85.11 19.14 83.71 19.7Z" fill="#424242"/>
  <path d="M94.3503 22.3301C93.9603 22.4401 93.2102 22.21 93.2602 22.5C92.3802 22.15 92.6503 21.92 92.0803 21.63C90.4303 21.51 88.0803 20.53 86.7803 20.47C87.1944 20.5493 87.5951 20.6874 87.9703 20.88C90.2803 21.88 93.6502 22.3801 95.1802 23.6001C94.8902 23.0801 96.4203 23.0801 94.3503 22.3301Z" fill="#424242"/>
  <path d="M85.3502 18.1499C84.8302 17.98 84.3501 17.8101 83.8901 17.6401C84.3462 17.8917 84.8389 18.0704 85.3502 18.1699V18.1499Z" fill="#424242"/>
  <path d="M85.71 18.0501C86.5 17.8201 88.3 18.8001 88.76 18.5201C88.76 18.3101 87.67 17.8701 87.36 17.6601C86.67 18.2701 84.63 16.8201 85.36 18.1501C86.1705 18.413 86.9951 18.63 87.83 18.8001L85.71 18.0501Z" fill="#424242"/>
  <path d="M81.79 16.49L80.79 16.78C81.8326 16.993 82.8586 17.2805 83.86 17.6401C83.41 17.3001 83.8 17.0501 81.79 16.49Z" fill="#424242"/>
  <path d="M87.3903 17.7C87.4322 17.6614 87.4691 17.6177 87.5002 17.5701C87.2603 17.5201 87.2703 17.5701 87.3903 17.7Z" fill="#FC8156"/>
  <path d="M97.1899 21.6299L96.4399 21.4099L96.66 21.4999L97.14 21.6899L97.6799 21.8899C98.2299 22.0799 98.7699 22.2599 99.3199 22.4299C98.8999 22.2499 98.46 22.0799 97.98 21.8999L97.1899 21.6299Z" fill="#424242"/>
  <path d="M94.9401 20.6999C95.6001 21.0899 95.8301 21.44 94.7901 21.2499L93.9301 20.4399L91.0601 20.3799C93.2301 20.4999 95.2601 22.17 95.9301 21.38L96.8601 22.01L96.4501 21.39L95.7701 21.0999L94.9401 20.6999Z" fill="#424242"/>
  <path d="M102.71 23.17L102.84 23.2799C101.654 23.0879 100.484 22.8072 99.3401 22.4399L99.62 22.5599C100.432 22.9057 101.215 23.3171 101.96 23.7899C101.31 25.0799 100.72 26.08 100.28 26.9C100.13 27.18 99.9901 27.44 99.8801 27.7C99.8801 27.75 99.7901 27.77 99.7501 27.7C99.7439 27.0808 99.9252 26.4742 100.27 25.96C100.61 25.33 101.05 24.59 101.27 24.14C101.184 24.0823 101.083 24.0516 100.98 24.0516C100.877 24.0516 100.776 24.0823 100.69 24.14C100.77 24.2144 100.853 24.2845 100.94 24.3499C100.499 25.1966 100.115 26.0719 99.7901 26.9699C99.6301 27.3799 99.4901 27.7399 99.3601 27.9699C99.2679 28.2146 99.1286 28.4389 98.9501 28.6299C98.9501 29.1099 99.5401 27.93 99.3401 29.17C99.0197 30.0779 98.5236 30.9138 97.8801 31.6299L97.9801 32.7599C97.3601 32.7599 96.8801 34.66 96.3301 36.7C96.9201 35.36 97.5301 33.9799 98.1301 32.5299C98.4701 31.7099 98.8101 30.8499 99.1301 29.9699C99.1901 29.7899 99.2601 29.6 99.3301 29.42C98.8501 33.06 96.9701 36.0399 96.0001 39.6299C95.8801 41.5099 96.7501 38 97.0501 37.89C97.6901 38.63 96.1201 39.4899 96.5201 40.4999C97.0301 40.9099 98.2501 36.9799 99.0601 35.4999C99.3901 34.1299 99.2001 34.09 99.0001 33.58C99.4301 33.34 99.9401 31.99 100.36 31.74C100.446 31.0778 100.594 30.425 100.8 29.7899C100.89 29.4999 100.99 29.23 101.09 28.96C101.19 28.69 101.32 28.36 101.43 28.05C102.037 26.5808 102.477 25.0477 102.74 23.4799C102.798 23.3698 102.876 23.2715 102.97 23.1899L102.71 23.17Z" fill="#424242"/>
  <path d="M102.97 23.2499L102.45 25C102.26 25.5301 102.45 25.09 102.66 24.5C102.87 23.91 103.09 23.2099 102.97 23.2499Z" fill="#FC8156"/>
  <path d="M94.9402 20.7C94.7902 20.61 94.6302 20.5299 94.4502 20.4399C94.6089 20.5351 94.7724 20.6219 94.9402 20.7Z" fill="#FC8156"/>
  <path d="M91.54 19.6401L90.04 19.21C90.5166 19.4251 91.0219 19.57 91.54 19.6401Z" fill="#424242"/>
  <path d="M93.27 19.62C90.97 18.71 92.2 19.62 91.54 19.62L93.69 20.23L93.27 19.62Z" fill="#424242"/>
  <path d="M95.9199 41.7C95.9199 42.97 96.5999 41.7 96.9199 40.28C96.5299 41.52 96.0599 42.07 95.9199 41.7Z" fill="#FC8156"/>
  <path d="M88.5702 56.7C88.3702 56.78 88.1402 57.1299 87.9702 58.1299C88.2347 57.6829 88.4365 57.2018 88.5702 56.7Z" fill="#424242"/>
  <path d="M99.7098 26.1699C99.7098 26.3299 99.6098 26.4899 99.5498 26.6499C99.6136 26.4936 99.667 26.3333 99.7098 26.1699Z" fill="#FC8156"/>
  <path d="M92.3999 45.5401L92.5299 45.3401C92.4841 45.3996 92.444 45.4632 92.4099 45.5301L92.3999 45.5401Z" fill="#FC8156"/>
  <path d="M39.2299 6.16989L38.1699 5.8999C38.5214 6.01206 38.8786 6.10552 39.2399 6.1799L39.2299 6.16989Z" fill="#FC8156"/>
  <path d="M40.3902 5.86005C40.0776 5.61305 39.7428 5.39547 39.3902 5.21005C38.9301 4.99214 38.4365 4.85352 37.9302 4.80005C38.3641 4.98688 38.7794 5.21457 39.1702 5.48004C39.2802 5.58004 39.1702 5.58005 39.0202 5.58005C38.8702 5.58005 38.7102 5.58005 38.7002 5.64005C38.6902 5.70005 38.8402 5.87004 39.2402 6.17004C40.5202 6.50004 41.8202 6.83006 43.0702 7.12006C42.0992 6.8903 41.1866 6.46121 40.3902 5.86005Z" fill="#424242"/>
  <path d="M43.0601 7.12012C43.2601 7.18012 43.4701 7.23009 43.7001 7.28009L43.0601 7.12012Z" fill="#FC8156"/>
  <path d="M67.7799 12.8999H67.6499C67.8799 12.9302 67.9999 12.9402 67.7799 12.8999Z" fill="#FC8156"/>
  <path d="M32.0303 76.35C32.5803 76.64 33.9302 76.7 34.9302 77.1599C34.0502 76.81 32.5603 75.8901 32.0303 76.35Z" fill="#424242"/>
  <path d="M31.47 78.4799V78.3799C31.33 78.3799 31.1499 78.3799 30.9399 78.3799L31.47 78.4799Z" fill="#424242"/>
  <path d="M31.6198 78.1299L31.5098 78.3801C31.8098 78.3901 31.9298 78.33 31.6198 78.1299Z" fill="#424242"/>
  <path d="M27.5698 77.1999L29.5198 77.8399C29.3698 78.1899 29.2999 78.3599 28.1099 77.9499C28.7508 78.2007 29.4243 78.3589 30.1099 78.4198L29.6699 78.2499C30.1016 78.245 30.533 78.2751 30.9598 78.3399C29.2498 77.7599 28.1898 76.4699 27.5698 77.1999Z" fill="#424242"/>
  <path d="M24.71 76.7C25.46 76.93 27.2899 77.4499 26.8799 76.8199L24.71 76.7Z" fill="#424242"/>
  <path d="M21.9199 75.24C24.0999 76.24 23.0199 75.24 24.3799 75.55C24.0165 75.415 23.6363 75.3309 23.2499 75.3C24.3799 75.87 22.4299 75.24 21.9199 75.24Z" fill="#424242"/>
  <path d="M24.3799 75.55C24.569 75.6152 24.7629 75.6653 24.9599 75.7L24.3799 75.55Z" fill="#FC8156"/>
  <path d="M46.1103 79.77L46.0403 79.54C45.9103 79.57 45.8903 79.63 46.1103 79.77Z" fill="#FC8156"/>
  <path d="M17.4299 73.3201L17.21 73.2301L16.21 72.96L17.4299 73.3201Z" fill="#FC8156"/>
  <path d="M13.8701 65.18V65.13C13.8701 65.13 13.8901 65.12 13.8701 65.18Z" fill="#FC8156"/>
  <path d="M92.2798 44.96C92.9698 43.42 92.2798 46.13 92.9298 44.87C92.7698 46.52 91.1098 48.21 90.6198 51.08C90.8198 50.08 91.0999 50.56 91.0399 51.08C90.2599 52.82 89.5198 55.81 88.9398 57.63C88.9832 57.6024 89.0335 57.5878 89.0848 57.5878C89.1362 57.5878 89.1865 57.6024 89.2299 57.63C88.7117 58.8899 88.1275 60.1216 87.4799 61.32C84.7099 67.78 82.7298 77.19 80.0698 82.55C79.0698 84.17 80.1498 80.55 79.6998 81.21C79.43 82.9335 79.2963 84.6755 79.2999 86.42C74.3162 84.2867 69.2145 82.4404 64.0198 80.89C63.2298 80.78 62.5198 80.76 63.5298 81.25C65.3098 81.48 66.0498 82.17 64.6998 82.11C62.7998 81.76 65.0398 81.71 62.6998 81.47L63.6998 81.94C62.185 81.4458 60.5898 81.2456 58.9998 81.35C50.7798 78.17 41.1798 77.06 34.1898 73.83L31.4998 73.71C31.4998 73.42 31.2798 73.02 30.0198 72.79C30.4598 72.96 31.2198 73.19 31.0198 73.25L25.4099 71.57L25.8998 72.03C24.7994 71.5644 23.6577 71.2028 22.4899 70.95C21.4023 70.7613 20.3625 70.3604 19.4298 69.77C19.3398 69.94 18.3498 69.77 18.2098 70.02C17.7798 69.83 17.3499 69.66 16.9199 69.49C17.2799 68.49 17.5699 67.55 17.8499 66.59C18.1999 65.34 18.5599 64.08 18.8499 62.86C19.463 60.5342 20.2761 58.2658 21.2798 56.08C20.9398 56.45 20.9398 55.94 20.8798 55.74C21.3998 53.91 21.2298 55.37 21.5698 55.01C20.3098 53.79 29.5698 30.56 29.6498 27.37C29.4698 27.81 29.2999 28.25 29.2399 28.05C30.3599 24.21 31.5298 20.23 32.6898 16.26C33.2598 14.26 33.8298 12.26 34.3998 10.35L35.1498 7.66L35.8098 5.24002L38.0698 5.83002C37.1398 5.53002 36.9398 5.24002 36.8298 4.96002C36.7198 4.68002 36.7399 4.41003 35.9799 4.09003C35.2799 4.01003 35.8298 4.27001 36.2698 4.48001C36.7098 4.69001 37.0498 4.88002 36.1898 4.74002C35.8861 4.54678 35.5723 4.36986 35.2498 4.21002C34.9881 4.74695 34.8775 5.34498 34.9298 5.94C34.9408 6.23077 34.9036 6.52137 34.8198 6.80002C34.6807 7.21334 34.4819 7.60413 34.2299 7.96002C34.2299 7.43336 34.2499 6.85333 34.2899 6.22C33.9099 8.1 33.5098 9.86001 32.9998 11.82C32.4898 13.78 31.9098 15.82 31.3298 17.67L30.8698 17.14C30.6998 18.6 30.0599 20.55 29.4899 20.64C30.9299 16.31 29.8399 15.16 31.2299 12.64C31.3399 13.03 31.2298 12.83 31.5098 12.59C31.4763 11.7877 31.5199 10.984 31.6398 10.19C31.7125 9.69075 31.8161 9.19649 31.9498 8.71002C32.0165 8.46336 32.0965 8.21336 32.1898 7.96002L32.3698 7.45001C32.4498 7.27001 32.5198 7.08002 32.5898 6.90002V7.70001C32.5785 7.88651 32.5785 8.07351 32.5898 8.26001C33.1598 6.42001 33.7398 4.51003 34.3098 2.62003L38.3698 3.85001L40.2098 4.37003L41.7098 4.70001C40.8998 4.18001 41.9298 4.18 43.3198 4.53C45.3898 5.28 42.6099 4.58002 43.4199 5.11002C44.5199 6.11002 48.5399 6.32001 50.0499 6.79001C49.5399 6.79001 53.9998 8.35001 51.1498 7.79001C54.4198 8.95001 57.0398 8.79001 59.0198 10.17C59.7539 9.99242 60.5173 9.97197 61.2598 10.11L61.0399 10.63L62.2598 10.58C64.4798 11.26 65.2598 12.65 67.6398 12.87C67.1998 12.78 66.3098 12.55 66.3298 12.25C66.6698 11.85 70.9598 13.01 70.3298 12.14L68.3298 11.97C69.1098 11.74 66.6499 11.1 67.2299 10.97L62.1198 9.70001V9.24002L63.2399 9.82001C64.9899 9.30001 60.7799 9.18001 59.4799 8.20001L59.3398 8.54001C55.0698 6.93001 57.6498 7.68001 54.1398 6.29001L52.9298 6.35001C52.7298 6.40001 56.2898 6.87001 56.0698 7.35001C53.6598 7.00001 50.5098 5.96001 47.9099 5.67001L49.9099 5.36002C48.9699 5.36002 47.7099 4.12 45.4199 3.53L47.4199 4.46002C46.0239 4.4529 44.6422 4.17793 43.3499 3.65002C42.5499 3.39002 41.7199 3.12 40.9099 2.88L40.2498 2.70001L39.2498 2.43002C38.5832 2.25669 37.9632 2.11668 37.3898 2.01001C38.6598 2.40001 39.9398 2.79001 40.0698 3.10001C38.1375 2.71364 36.2507 2.12715 34.4398 1.35001C34.4398 0.850006 37.3098 1.58001 40.0298 2.35001L40.5098 2.47L40.7899 2.54001L41.3198 2.66C41.6698 2.74 41.9799 2.80003 42.2299 2.84003C42.7399 2.91003 43.0299 2.89002 42.9099 2.65002C42.3232 2.45731 41.7254 2.30036 41.1198 2.18002L40.6798 2.10001L40.3499 2.03L39.9498 1.94L38.4298 1.61002C36.4298 1.21002 34.8198 0.940016 33.4298 0.610016C33.2308 1.47313 32.9838 2.32445 32.6898 3.16C32.8098 2.16 32.9399 1.11 33.0999 0H33.2798H33.0798L32.4199 2.77002L32.6998 2C32.6294 2.89361 32.4203 3.7708 32.0798 4.60001C31.9098 5.08001 31.7299 5.60003 31.5399 6.12003C31.4499 6.39003 31.3598 6.66 31.2798 6.94L31.1699 7.35001L31.1099 7.56V7.69V7.57001V7.36002V6.94V6.06L30.2198 8.98001L30.4498 8.74002C29.6576 12.1826 28.5737 15.5514 27.2098 18.81L28.0198 16.93C27.9403 17.6694 27.7445 18.3916 27.4398 19.07C27.8498 18.9 28.4398 16.44 28.7098 16.71C27.7098 19.86 27.1498 20.14 25.9398 23.22C26.0498 23.61 27.3799 21.44 26.7999 24.1C26.3999 23.75 25.5298 25.95 25.5898 24.1C25.2598 26.42 24.7198 25.68 24.7198 27.61C24.7954 27.3167 24.8923 27.0292 25.0098 26.75C25.4698 26.26 25.0098 27.75 24.8898 28.41C24.1655 29.3254 23.6009 30.3566 23.2198 31.46L22.4698 35.06C22.3498 35.19 22.2899 34.99 22.2899 34.99C21.4799 38.4 20.0898 41.91 19.6298 44.45C19.7398 44.84 19.7398 45.86 20.2598 44.03C20.2598 45.57 19.2598 47.37 18.6398 48.81L18.5298 47.4C17.3698 51.69 15.1798 56.57 14.5298 60.56L15.0999 59.96C14.8799 60.88 14.6299 61.79 14.3499 62.67C14.2099 63.11 14.0698 63.54 13.9398 63.96L13.5098 65.24C12.5598 68.24 11.6998 70.92 11.3398 72.69C11.8798 71.41 12.1099 70.99 12.1599 71.05C12.1353 71.5074 12.0444 71.9588 11.8898 72.39C13.5098 72.83 15.8898 73.55 16.6198 73.68C15.2798 73.2 13.7099 72.68 12.0999 72.28C12.6099 70.47 13.0999 68.68 13.4199 67.28C13.6999 66.2 13.9198 65.37 14.0098 65.17C13.9726 65.1961 13.9419 65.2303 13.9199 65.27L15.0298 60.27L15.5499 60.48C14.4599 59.85 18.0398 54.03 16.7098 54.66C17.0598 53.27 17.7098 52.85 17.9298 53.12L18.7399 49.2C19.0799 48.84 19.3698 49.81 19.1998 50.25C18.7298 51.76 18.4398 54.36 17.4598 55.66C17.3998 57 18.3798 54.66 17.6898 57.46C16.8033 59.5111 16.055 61.6191 15.4498 63.77L14.3198 67.57C13.8598 69.07 13.4098 70.49 12.9398 71.82C13.5598 72.04 14.1299 72.26 14.6599 72.49C13.6599 71.99 12.5798 71.66 14.3098 71.87C15.2498 72.3 16.2598 72.76 17.3098 73.24C18.0498 73.42 18.7398 73.57 19.3098 73.65L20.3998 73.75C21.0624 73.7691 21.7107 73.9475 22.2899 74.27C22.5799 74.18 21.7798 73.85 20.7698 73.47L19.0999 72.85C18.4099 72.6 17.8098 72.37 17.4598 72.21C18.1298 72.1263 18.8098 72.1773 19.4598 72.36C19.5936 72.3912 19.7242 72.4347 19.8499 72.49L20.1998 72.63L20.8998 72.98C21.7799 73.5823 22.8354 73.8743 23.8998 73.81C24.8998 73.35 18.9698 72.54 20.8398 72.13L23.3599 73.06C22.5491 72.4413 21.5908 72.0449 20.5798 71.91C19.6698 71.71 18.6398 71.48 18.5798 70.99C19.3385 71.0638 20.0827 71.2457 20.7899 71.53C21.3664 71.7124 21.9227 71.9537 22.4498 72.25C23.2798 72.31 21.1598 71.25 22.6198 71.45C23.9898 72.25 24.8398 71.85 25.8898 72.6L25.1099 72.83C26.1799 73.12 28.8199 74.16 30.1099 74.39C30.0199 75.03 26.8498 74.45 25.6498 74.04C26.9157 74.6786 28.2608 75.1459 29.6498 75.43L27.7698 74.62C30.6698 75.43 30.2799 74.34 33.5399 75.49C36.3199 76.19 34.0798 76.24 34.8898 76.76C38.0498 77.34 35.9599 77.05 36.0499 76.42C38.5099 77.06 39.0498 77.52 42.2198 78.42C40.3198 78.07 39.7299 78.24 37.9799 77.55L38.3898 78.18C40.9298 78.65 42.9798 78.65 46.0198 79.12L46.1699 79.58C46.8699 79.43 70.3899 86.51 69.1699 85.34C69.4899 85.54 64.4699 84.03 60.0399 82.71L60.3198 82.63C63.9998 83.46 74.3798 86.3 71.3198 85.46C71.7298 84.88 73.2198 85.81 73.3198 85.17C75.391 85.6055 77.4345 86.1632 79.4398 86.84C79.5598 89.26 80.2698 90.1 81.3698 89.92L81.5198 88.97C81.6198 89.05 82.0398 89.08 82.2498 88.05C82.5598 86.49 82.0098 87.51 81.7698 87.61H81.6898C81.6723 87.5276 81.6723 87.4424 81.6898 87.36C83.5798 85.54 82.8998 80.36 85.1198 78.45C87.7498 68.94 90.8998 57.45 93.7498 49.01L93.4998 49.4C93.5998 48.4 94.4999 46.17 94.7899 46.2L94.3998 45.66C95.1398 42.39 95.6099 47.75 96.5999 44.1C95.7299 45.86 95.3698 44.05 95.8798 42.7C95.6398 42.98 94.7899 42.7 94.6099 43.46L93.4698 45.25C94.2999 45.58 92.9298 48.67 92.3998 49.74C92.3955 49.6968 92.3955 49.6532 92.3998 49.61C92.5198 49.18 92.4798 49.24 92.3998 49.48C92.29 48.9832 92.2866 48.4688 92.39 47.9707C92.4934 47.4726 92.7013 47.002 92.9998 46.59C93.3324 45.1238 93.76 43.6808 94.2798 42.27C93.3091 42.8945 92.5983 43.8505 92.2798 44.96ZM53.8998 80.96L54.6998 81.21L53.6998 80.94L53.8998 80.96ZM59.4799 82.6L58.9398 82.44C58.8898 82.38 59.2998 82.44 60.0098 82.6H59.4799Z" fill="#424242"/>
  <path d="M94.0601 42.19C94.5954 41.7283 95.002 41.1357 95.2401 40.47C95.2401 40.36 95.1501 40.24 95.0701 40.33C95.587 39.1761 95.9987 37.9779 96.3001 36.75C96.2101 36.95 96.1201 37.14 96.0401 37.34C95.3201 38.97 94.6501 40.57 94.0601 42.19Z" fill="#FC8156"/>
  <path d="M94.6499 46.1201L94.7299 46.23C94.7099 46.1601 94.7099 46.1301 94.6499 46.1201Z" fill="#FC8156"/>
  <path d="M20.77 44.19C20.77 44.56 20.58 44.56 20.64 44.88C20.4722 45.6776 20.2208 46.4552 19.89 47.2C19.51 48.2 19.07 49.2 18.7 50.2C18.13 51.33 17.57 52.33 17 53.4C16.75 53.84 13.8001 57.61 13.4901 57.86C12.6701 58.42 11.29 60.05 10.54 60.55C9.63887 61.0096 8.68979 61.3684 7.71002 61.62C6.89846 61.7259 6.0754 61.7056 5.27002 61.56C3.95002 61.37 2 59.43 1.38 58.17C1.02419 57.6415 0.72899 57.0746 0.5 56.48C0.231665 55.4725 0.0641744 54.4407 0 53.4C0 48.13 0.620005 47.4 2.13 42.29C2.25 41.85 2.32 41.48 2.44 41.04C2.53062 40.61 2.65775 40.1884 2.82001 39.78C3.01001 39.09 3.2 38.4 3.38 37.78C3.7 36.4 5.38001 34.01 3.82001 33.7C3.38001 33.63 3.01 33.7 2.63 33.38C2.25 33.06 1.88 32.94 1.5 32.69C1.3121 32.5532 1.17773 32.3552 1.12 32.13C1.22051 32.0729 1.3281 32.0291 1.44 32L4.01001 31.44C4.61079 31.3183 5.21868 31.2348 5.83002 31.19C5.96886 31.1633 6.09898 31.1029 6.20886 31.0139C6.31875 30.9249 6.40502 30.8103 6.46002 30.68C6.70598 30.1959 6.91654 29.6946 7.09003 29.18C7.71003 27.99 8.15003 26.73 8.84003 25.6C9.41059 24.6356 10.1067 23.7512 10.91 22.97C11.0445 22.7899 11.1915 22.6195 11.35 22.46C11.4596 22.3602 11.5901 22.2859 11.7319 22.2427C11.8737 22.1995 12.0234 22.1883 12.17 22.21C12.55 22.34 12.92 22.15 13.36 22.15C13.42 22.15 13.4201 22.15 13.4901 22.09C14.3701 21.9 14.68 22.28 14.93 22.97C15.236 23.5914 15.3869 24.2776 15.37 24.97C15.3756 25.3072 15.4193 25.6426 15.5 25.97C15.5601 26.2603 15.5601 26.5598 15.5 26.85C15.43 27.16 15.37 27.47 15.31 27.85C15.25 28.23 15.06 28.85 14.93 29.36C14.9391 29.5289 14.9188 29.6981 14.87 29.86C15.0628 29.9635 15.2827 30.0054 15.5 29.98L17.82 29.8H21.08C21.4801 29.835 21.8775 29.8951 22.27 29.98C22.1962 30.1127 22.1127 30.2397 22.02 30.36C21.8927 30.4884 21.7437 30.5933 21.58 30.67C21.14 30.86 20.64 31.11 20.2 31.3C20.2 31.3159 20.1937 31.3312 20.1824 31.3425C20.1712 31.3537 20.1559 31.36 20.14 31.36C19.4183 31.5351 18.6817 31.6423 17.94 31.68C17.4931 31.6793 17.0485 31.7433 16.62 31.87C16.3561 31.9569 16.085 32.0205 15.81 32.06L14.37 32.24C14.11 32.31 13.99 32.49 13.86 32.75C13.8 32.81 13.8001 32.87 13.7401 32.93C12.9901 35.07 11.98 37.08 11.16 39.15C11.043 39.3736 10.9394 39.604 10.85 39.84C10.5371 40.4397 10.2858 41.0696 10.1 41.72C9.89158 42.2936 9.61635 42.8407 9.28003 43.35C9.03003 43.79 9.09003 44.35 8.78003 44.79C7.85826 47.608 7.39239 50.5551 7.40002 53.52C7.47875 54.5041 7.69069 55.473 8.03003 56.4C8.17612 56.6809 8.36505 56.9373 8.59003 57.16C8.66003 57.16 8.72003 57.22 8.84003 57.22C9.60734 57.3006 10.3828 57.1942 11.1 56.91C11.48 56.65 13.3601 55.15 13.7401 54.83C15.1382 53.4698 16.3792 51.957 17.44 50.32C18.01 49.25 18.32 47.87 18.88 46.86C19.13 46.24 19.76 44.86 20.08 44.17C20.39 44.25 20.83 44 20.77 44.19ZM11.04 34.9C11.67 33.33 11.86 32.08 9.78003 33.39C9.09003 35.46 8.84003 36.91 8.28003 38.85C6.90003 44.06 8.91003 40.17 9.78003 37.85C10.1338 36.8397 10.5547 35.8542 11.04 34.9ZM12.9901 27.68C13.0501 27.43 13.11 27.12 13.17 26.8C13.24 26.3 13.36 25.8 13.42 25.3C13.465 24.7329 13.4449 24.1625 13.36 23.6C13.3 23.35 13.1101 23.29 12.9901 23.42C12.7374 23.5589 12.5372 23.7767 12.42 24.04C12.1485 24.5575 11.9371 25.1044 11.79 25.67C11.73 25.86 11.6 26.05 11.54 26.24C11.48 26.43 11.29 26.74 11.16 27.06C11.04 27.68 10.91 28.37 10.73 29.06C10.47 30.69 12.23 30.76 12.61 29.63C12.71 29 12.8601 28.37 12.9901 27.7V27.68Z" fill="#FC8156"/>
  <path d="M24.7103 46.38C25.5571 44.2788 26.5185 42.2257 27.5903 40.23C27.9854 39.671 28.3428 39.0864 28.6603 38.48C29.0371 37.9856 29.3716 37.4604 29.6603 36.91C29.7616 36.7181 29.9036 36.5507 30.0763 36.4194C30.249 36.2882 30.4483 36.1962 30.6603 36.15C31.1003 36.15 31.4703 36.09 31.8503 36.09C32.6003 36.09 33.0403 36.66 33.4203 37.47V37.7C33.5403 38.52 33.7303 39.3999 33.8603 40.2799C33.9404 41.1141 33.9604 41.9529 33.9203 42.79C33.9503 43.3529 33.9503 43.917 33.9203 44.48C34.2303 44.67 34.1703 44.92 34.2303 44.86C34.2903 44.8 34.8002 44.92 34.9302 44.79C35.0602 44.66 35.1102 44.61 35.1802 44.48C35.4592 44.2836 35.7113 44.0516 35.9302 43.79C36.1202 43.48 36.3102 43.48 36.5602 43.79C36.5641 43.8876 36.5432 43.9847 36.4994 44.0721C36.4557 44.1595 36.3907 44.2344 36.3102 44.29C36.2274 44.3838 36.163 44.4924 36.1202 44.61C36.0921 44.705 36.0435 44.7927 35.9778 44.867C35.9122 44.9413 35.8311 45.0003 35.7403 45.04L35.5503 45.23C35.4903 45.3 35.3603 45.36 35.3603 45.42C35.3603 45.48 35.2402 45.48 35.1802 45.55C35.096 45.6502 34.9902 45.7302 34.8707 45.7839C34.7513 45.8376 34.6212 45.8636 34.4903 45.86C34.2815 45.8913 34.0847 45.9775 33.9203 46.11C33.852 46.1725 33.7628 46.2072 33.6703 46.2072C33.5777 46.2072 33.4885 46.1725 33.4203 46.11C32.9906 45.9172 32.5498 45.7503 32.1003 45.61C31.7055 45.472 31.3505 45.2395 31.0663 44.9327C30.7822 44.6259 30.5776 44.2541 30.4703 43.85C30.122 42.6923 30.0569 41.468 30.2803 40.2799C30.3739 39.7607 30.4374 39.2365 30.4703 38.71C30.5303 38.33 30.5903 37.95 30.6603 37.58C30.7684 37.3663 30.7899 37.1191 30.7203 36.89C30.6603 36.89 30.5303 36.82 30.5303 36.95C30.4326 37.0409 30.3484 37.1452 30.2803 37.26C30.0303 37.77 29.7203 38.26 29.4003 38.83C29.2028 39.1782 29.077 39.5624 29.0303 39.96C29.0903 40.21 28.9003 40.4 28.8403 40.59C28.2564 41.6291 27.7709 42.7205 27.3903 43.85C27.0803 44.73 26.6403 45.48 26.2703 46.36C25.6384 47.6271 25.071 48.9255 24.5703 50.25C24.4503 50.69 24.1903 51.19 24.0103 51.7C23.4257 52.9894 22.7332 54.2271 21.9402 55.4C21.9402 55.52 21.7502 55.59 21.6202 55.71C21.3424 56.1271 20.9259 56.4323 20.4444 56.5714C19.9629 56.7105 19.4478 56.6746 18.9903 56.47C18.8603 56.59 18.7403 56.47 18.6103 56.34C17.6103 56.09 17.1003 55.15 16.8503 53.89C16.6921 52.8109 16.6285 51.7201 16.6603 50.63C16.7303 49 16.7903 47.37 16.9103 45.73C17.0025 44.589 17.1932 43.4581 17.4803 42.35C17.6268 40.8012 17.9869 39.2801 18.5503 37.83C18.6659 37.4225 18.813 37.0246 18.9903 36.64C19.4303 35.51 19.8003 34.5 20.3003 33.5C20.5503 32.68 20.8102 32.56 21.4302 32.68C21.9603 32.7137 22.4859 32.7974 23.0002 32.93C23.4734 33.0104 23.912 33.2296 24.2603 33.5599C24.7335 34.3293 25.2865 35.0467 25.9103 35.7C26.194 36.131 26.3709 36.6233 26.4266 37.1363C26.4822 37.6493 26.415 38.1682 26.2303 38.65C25.9103 39.91 25.7903 38.97 25.4703 40.29C24.6603 42.92 23.1503 44.99 22.4703 47.38C21.5203 50.4 24.4103 47.45 24.7103 46.38Z" fill="#FC8156"/>
  <path d="M59.3598 44.56C59.1728 45.3514 58.8331 46.0987 58.3598 46.76C58.1798 46.82 58.1098 47.01 57.9898 47.07C57.7773 47.3576 57.5468 47.6315 57.2998 47.89C57.1378 48.0021 57.0071 48.1535 56.9198 48.33C56.7503 48.6493 56.4891 48.9105 56.1698 49.08C56.0398 49.1283 55.928 49.2156 55.8498 49.3301C55.4533 49.7473 55.0361 50.1445 54.5998 50.5201C54.256 50.8175 53.8491 51.033 53.4098 51.1501C52.8798 51.221 52.3552 51.3279 51.8398 51.4701C51.3636 51.6044 50.8793 51.7079 50.3898 51.7801H49.8298C49.0721 51.6189 48.3503 51.3207 47.6998 50.9001C47.599 50.8273 47.4919 50.7637 47.3798 50.7101C46.7974 50.4908 46.2809 50.1258 45.8798 49.6501C45.41 49.8683 44.9671 50.1401 44.5598 50.4601C44.3167 50.5851 44.0857 50.7324 43.8698 50.9001C43.8217 50.9075 43.7767 50.9283 43.7398 50.9601C43.3698 51.4701 42.8598 51.5301 42.3598 51.7201C41.9403 51.8607 41.4969 51.9164 41.0557 51.8838C40.6144 51.8511 40.1841 51.7309 39.7898 51.5301C39.4906 51.355 39.1759 51.2077 38.8498 51.0901C38.0054 50.7781 37.2711 50.2253 36.7378 49.5C36.2045 48.7748 35.8958 47.909 35.8498 47.01C35.725 46.041 35.8994 45.057 36.3498 44.19C36.7571 43.3574 37.2606 42.5754 37.8498 41.86C37.8498 41.8 37.9198 41.74 37.9798 41.68C38.8203 40.4352 39.7318 39.2398 40.7098 38.0999C41.4046 37.3381 42.2063 36.6813 43.0898 36.1499C43.2709 36.0754 43.4641 36.0347 43.6598 36.0299C44.0522 35.9537 44.4502 35.9102 44.8498 35.8999H45.0398C45.4706 36.0416 45.912 36.1486 46.3598 36.2199C46.4758 36.2881 46.6057 36.3291 46.7398 36.3399C47.0498 36.4099 47.2998 36.4099 47.4298 36.6599C47.4611 36.6938 47.5038 36.7151 47.5498 36.7199C47.8598 36.7199 48.1198 37.0299 48.4298 37.0299C48.5452 37.0353 48.655 37.0814 48.7398 37.1599C49.1465 37.4858 49.5065 37.866 49.8098 38.2899C49.8698 38.4799 49.9298 38.5999 49.9998 38.7899C50.0824 39.0317 50.0694 39.2959 49.9634 39.5283C49.8574 39.7607 49.6665 39.9438 49.4298 40.0399C48.8736 40.3187 48.3476 40.6538 47.8598 41.0399V41.0999C47.1077 41.7505 46.415 42.4666 45.7898 43.24C45.5549 43.5236 45.3045 43.794 45.0398 44.05C44.4798 44.68 44.0398 45.37 43.5298 46.05C43.3498 46.36 43.0898 46.68 42.9098 46.93C42.8031 47.0358 42.7182 47.1615 42.6598 47.3C42.2961 47.9479 42.0395 48.6503 41.8998 49.38C41.8398 49.44 41.8998 49.5 41.8998 49.63C41.9932 49.5812 42.0777 49.5169 42.1498 49.44C42.7954 48.7847 43.4872 48.1764 44.2198 47.62C44.6179 47.3299 44.9572 46.9668 45.2198 46.55C45.3639 46.3444 45.5317 46.1564 45.7198 45.99C46.1062 45.5539 46.4637 45.0929 46.7898 44.61C47.2198 43.92 47.6598 43.23 48.0998 42.47C48.3481 42.4105 48.6078 42.4201 48.8511 42.4976C49.0943 42.5752 49.3118 42.7178 49.4798 42.91L49.8598 43.29C50.2257 43.8263 50.4209 44.4607 50.4198 45.11C50.4065 45.2218 50.3652 45.3284 50.2998 45.42C50.0498 45.99 49.7298 46.61 49.4198 47.18C49.2351 47.5939 49.1693 48.0509 49.2298 48.5C49.3679 49.0408 49.5588 49.5666 49.7998 50.07C49.8592 50.165 49.9417 50.2433 50.0397 50.2975C50.1376 50.3517 50.2478 50.3801 50.3598 50.3801C50.8113 50.334 51.2549 50.2298 51.6798 50.07C52.0895 49.8858 52.487 49.6753 52.8698 49.44C53.3098 49.19 53.7498 48.9401 54.2498 48.6201C54.5698 48.31 54.9398 48.06 55.2498 47.74C56.0598 46.93 57.3198 44.86 58.1298 44.04C58.1998 43.98 58.2598 43.98 58.3198 43.92C58.7274 44.0131 59.093 44.238 59.3598 44.56Z" fill="#FC8156"/>
  <path d="M78.8098 45.19C78.6376 45.6767 78.5333 46.1849 78.4998 46.7C78.4298 46.88 78.0598 47.07 77.9298 47.2C77.8098 47.58 75.7399 48.08 75.5499 48.08C74.9199 48.45 73.2899 47.32 73.0999 47.26C73.0999 47.26 72.2199 46.63 72.1599 46.57C72.0999 46.51 71.0898 45.57 70.9698 45.44C70.3998 44.37 70.0898 44.06 69.5198 43.06C69.1307 43.6244 68.8148 44.236 68.5798 44.88C68.0798 45.82 67.6998 46.82 67.0798 47.83C66.8898 47.95 66.8198 48.14 66.6998 48.27C66.4831 48.8933 66.1155 49.4533 65.6298 49.9C65.2641 50.4011 64.9681 50.9494 64.7498 51.53C64.7498 51.59 64.6898 51.78 64.6898 51.84C64.6891 52.248 64.5557 52.6446 64.3098 52.97C63.9263 53.4041 63.6095 53.8928 63.3698 54.42C63.0745 55.2895 62.5019 56.0378 61.7399 56.55C61.6552 56.6696 61.5426 56.7668 61.4119 56.833C61.2812 56.8992 61.1364 56.9325 60.9899 56.93C60.7577 56.9386 60.5255 56.9151 60.2999 56.86C59.9209 56.8804 59.5435 56.9238 59.1699 56.99C58.9822 57.092 58.7752 57.1535 58.5623 57.1706C58.3493 57.1877 58.1352 57.1601 57.9336 57.0894C57.732 57.0188 57.5474 56.9067 57.3918 56.7604C57.2361 56.6141 57.1128 56.4369 57.0298 56.24C56.2749 55.481 55.4588 54.7853 54.5898 54.16C54.005 53.474 53.6547 52.6191 53.5898 51.72C53.6189 51.2559 53.6824 50.7947 53.7798 50.34C54.0298 49.4 54.1599 48.27 54.4099 47.26C54.5999 46.51 54.7199 45.75 54.9099 44.94C55.3499 43.18 55.6599 41.49 56.0999 39.86C56.3947 38.9134 56.6252 37.9478 56.7899 36.97C56.8198 36.377 56.9035 35.7879 57.0399 35.21C57.1099 34.59 57.0399 34.84 57.1099 34.33C57.1437 34.1536 57.208 33.9844 57.2999 33.83C57.4023 33.7768 57.52 33.7606 57.6331 33.7843C57.7461 33.808 57.8474 33.8701 57.9199 33.96C58.011 34.096 58.1185 34.2203 58.2399 34.33C58.4899 34.65 58.3599 34.71 58.7999 34.71C58.8768 34.724 58.9501 34.7533 59.0154 34.7962C59.0807 34.8392 59.1366 34.8949 59.1798 34.96C59.5123 35.4559 59.9366 35.8836 60.4298 36.22C60.6798 36.72 61.1198 37.03 61.1898 37.66C60.978 37.6698 60.7659 37.6496 60.5598 37.6C60.4706 37.7608 60.4189 37.9396 60.4085 38.1232C60.3981 38.3067 60.4293 38.4902 60.4998 38.66C60.7545 39.3235 60.8801 40.0295 60.8698 40.74C60.8698 41.05 60.9398 41.36 60.9398 41.55C61.1462 42.3051 61.2306 43.0883 61.1898 43.87V44.37C61.2498 45 61.2498 45.63 61.2498 46.26C61.2086 46.7406 61.2288 47.2245 61.3098 47.7C61.3387 48.0059 61.2724 48.3133 61.1198 48.58L60.9398 48.52C60.8698 48.2 60.8698 47.95 60.8098 47.7C60.8098 47.64 60.6798 47.58 60.6198 47.51C60.5598 47.44 60.4998 47.39 60.4298 47.51C60.3598 47.63 60.3098 47.64 60.3098 47.7C60.3098 48.39 60.3098 49.02 60.3698 49.65C60.4544 49.9763 60.4748 50.316 60.4298 50.65C60.3977 50.7463 60.3929 50.8496 60.4158 50.9484C60.4388 51.0472 60.4886 51.1378 60.5598 51.21C60.6198 51.21 60.8098 51.28 60.8698 51.21C60.9298 51.14 60.9998 51.09 60.9398 50.96C60.915 50.5551 60.9764 50.1495 61.1198 49.77L61.2498 49.65C61.2498 49.71 61.3098 49.77 61.3098 49.9C61.4131 50.2228 61.4571 50.5616 61.4398 50.9C61.4711 51.0293 61.5111 51.1563 61.5598 51.28C61.5586 51.3499 61.5836 51.4176 61.6298 51.47C61.3098 51.9 61.6898 52.03 61.7498 52.34C61.8696 52.275 61.9777 52.1905 62.0698 52.09C63.0521 50.9882 63.9512 49.815 64.7598 48.58L65.6998 47.26C66.1317 46.691 66.4693 46.0562 66.6998 45.38C66.8416 44.8919 67.0539 44.427 67.3298 44C68.0198 42.37 68.1398 43.43 68.5798 42C68.5101 41.3632 68.3829 40.734 68.1998 40.12C68.1998 38.93 67.8898 38.99 68.6398 38.8C69.1779 38.8554 69.706 38.9832 70.2098 39.18C70.5898 39.36 70.2798 39.43 70.7198 39.43C70.9341 39.402 71.1516 39.4441 71.3398 39.55C71.4037 39.5801 71.4596 39.6246 71.503 39.6802C71.5464 39.7358 71.5762 39.8008 71.5898 39.87C71.5898 39.99 71.6598 40.05 71.7198 40.24C71.9015 41.8296 72.3476 43.3776 73.0399 44.82C73.5999 45.26 74.2899 46.96 75.5499 46.71C76.0626 46.4921 76.5867 46.3018 77.1198 46.14C77.6798 46.02 78.1198 45.33 78.6798 45.01C78.7057 44.9875 78.7359 44.9706 78.7686 44.9603C78.8013 44.95 78.8357 44.9465 78.8698 44.95C78.9398 45.06 78.8698 45.13 78.8098 45.19ZM60.3599 44.75L60.4199 44.88C60.4199 44.94 60.4899 44.88 60.4899 44.88C60.5208 44.731 60.5609 44.5841 60.6099 44.44V44.12C60.5499 44.06 60.4899 44 60.4199 44.06C60.3499 44.12 60.3599 44.25 60.4199 44.25C60.4881 44.3082 60.5516 44.3718 60.6099 44.44C60.565 44.5692 60.4766 44.6788 60.3599 44.75ZM60.4899 45.32C60.4899 45.3015 60.4825 45.2837 60.4694 45.2705C60.4562 45.2574 60.4384 45.25 60.4199 45.25C60.3599 45.25 60.3599 45.32 60.3599 45.32C60.3599 45.32 60.4199 45.44 60.4199 45.5C60.4646 45.4507 60.4895 45.3866 60.4899 45.32ZM60.5499 45.88V45.94H60.6099C60.6099 45.88 60.6099 45.88 60.5499 45.88ZM60.9298 52.09C60.8598 52.22 60.7999 52.22 60.7999 52.28C60.7999 52.2959 60.8061 52.3112 60.8174 52.3225C60.8286 52.3337 60.844 52.34 60.8599 52.34C60.8967 52.3083 60.9418 52.2875 60.9899 52.28C60.9299 52.22 60.9298 52.22 60.9298 52.09ZM60.9899 51.53C61.017 51.5223 61.0409 51.5059 61.0579 51.4833C61.0749 51.4608 61.0841 51.4333 61.0841 51.405C61.0841 51.3768 61.0749 51.3493 61.0579 51.3267C61.0409 51.3042 61.017 51.2878 60.9899 51.28H60.9298C60.9298 51.34 60.8599 51.4 60.8599 51.53C60.8599 51.66 60.9298 51.53 60.9298 51.65L60.9899 51.53Z" fill="#FC8156"/>
  <path d="M81.0701 44.37C81.0589 44.4402 81.0301 44.5063 80.9864 44.5622C80.9427 44.6182 80.8855 44.6622 80.8201 44.69C80.7638 44.7202 80.7165 44.7648 80.6831 44.8193C80.6497 44.8738 80.6314 44.9361 80.6301 45C80.5701 45.25 80.5001 45.32 80.3201 45.38C80.1401 45.44 80.1901 45.5 80.1301 45.88C80.2501 45.88 80.3201 45.88 80.3801 45.94V46.01H79.9401C79.9863 45.8441 80.0065 45.6721 80.0001 45.5H79.8801C79.8101 45.94 79.7501 46.38 79.6901 46.82C79.8101 46.88 79.8801 46.95 79.9401 46.95C79.99 47.3647 80.0101 47.7825 80.0001 48.2C80.0115 48.5891 80.0964 48.9725 80.2501 49.33C80.4401 49.58 80.9401 50.96 81.1301 51.21C82.0101 52.09 83.1301 53.21 84.1301 53.29C84.9534 53.2418 85.7721 53.1349 86.5801 52.97C88.1555 52.4733 89.624 51.6865 90.9102 50.65C91.9702 49.83 92.9802 48.89 94.0502 48.01L94.2302 47.83C94.6102 47.39 94.9902 47.01 95.3602 46.57C96.0555 45.8954 96.688 45.1591 97.2501 44.37C97.3964 44.0343 97.6644 43.7663 98.0001 43.62C97.8987 44.1619 97.7307 44.6892 97.5001 45.19C97.4319 45.3784 97.3226 45.5492 97.1801 45.69C96.814 46.0899 96.4984 46.5332 96.2402 47.01C96.0502 47.26 95.8002 47.51 95.6102 47.76C95.5502 47.83 95.4902 47.95 95.3602 48.14C95.5502 48.08 95.6801 48.01 95.8701 47.95C95.8001 48.33 95.4901 48.39 95.4301 48.7C95.4901 48.77 95.4902 48.83 95.6102 48.89C95.4429 49.1731 95.2339 49.4293 94.9902 49.65C94.6019 49.97 94.2438 50.3248 93.9202 50.71C93.3626 51.3058 92.7535 51.8512 92.1002 52.34C91.8268 52.5944 91.5324 52.8252 91.2202 53.03C90.9702 53.22 90.7202 53.35 90.4702 53.54C90.0792 53.7194 89.7015 53.9266 89.3401 54.16C88.7264 54.5478 88.0495 54.8253 87.3401 54.98L86.7802 55.17C86.046 55.402 85.2877 55.5496 84.5201 55.61C82.6916 55.5319 80.8788 55.2365 79.1201 54.73C76.9201 53.85 76.4802 52.78 75.4802 51.9C75.0821 51.5437 74.7795 51.0933 74.6002 50.59C74.3277 49.7357 74.1795 48.8466 74.1602 47.95C74.1853 46.0157 74.636 44.1106 75.4802 42.37C75.6702 41.99 75.6702 41.99 75.6102 41.43C75.4602 41.4905 75.3257 41.584 75.2167 41.7034C75.1076 41.8228 75.0268 41.9652 74.9802 42.12C74.7783 42.6842 74.5273 43.2296 74.2302 43.75C74.271 43.2641 74.4178 42.7931 74.6602 42.37C75.1491 41.2525 75.7382 40.1814 76.4202 39.17C77.0871 38.1259 77.865 37.1569 78.7402 36.28C79.5736 35.3644 80.5252 34.5641 81.5701 33.9C81.7861 33.8056 81.9965 33.6988 82.2001 33.58C82.5101 33.46 82.8201 33.39 83.0101 33.71C83.2001 34.03 83.4501 33.83 83.5801 33.96C83.7101 34.09 83.8301 34.33 83.9501 34.46C84.5801 34.77 86.9502 35.4 87.5302 35.78C87.7277 35.9495 87.8791 36.1662 87.9702 36.41C88.2116 36.9835 88.5499 37.5111 88.9702 37.97C89.0929 38.1401 89.1782 38.3344 89.2202 38.54C89.3802 39.2849 89.3802 40.0552 89.2202 40.8C89.0694 41.6701 88.75 42.5024 88.2802 43.25C88.0127 43.6659 87.7818 44.1042 87.5901 44.56C87.4372 45.0062 87.2253 45.4299 86.9601 45.82C86.846 46.0456 86.6868 46.2454 86.4925 46.4071C86.2981 46.5687 86.0727 46.6889 85.8301 46.76C85.4624 46.9442 85.0469 47.0105 84.6401 46.95C84.4501 46.88 84.2701 46.95 84.1401 46.7C84.1416 46.6913 84.1411 46.6825 84.1388 46.674C84.1364 46.6655 84.1323 46.6577 84.1265 46.651C84.1208 46.6443 84.1137 46.6389 84.1057 46.6353C84.0976 46.6317 84.0889 46.6299 84.0801 46.63C83.5801 46.7 83.2601 46.13 82.8901 45.94C82.8177 45.8515 82.7725 45.7438 82.7601 45.63C82.8901 45.38 82.7601 45.25 82.7001 45.06C82.4544 44.526 82.1807 44.0052 81.8801 43.5C81.8201 43.31 81.6301 43.25 81.4401 43.43C81.2501 43.61 81.0701 44 81.0701 44.37ZM75.0701 50.02C75.1301 50.21 75.1901 50.34 75.2501 50.52C75.3101 50.7 75.4401 50.84 75.3201 51.09C75.2501 51.03 75.1901 51.03 75.1901 50.96C74.9188 50.2347 74.7571 49.473 74.7101 48.7C74.6401 48.64 74.7101 48.58 74.7101 48.52C74.6696 47.5897 74.7536 46.6581 74.9601 45.75C75.0296 45.5709 75.0701 45.3819 75.0801 45.19V44.75C74.929 45.0309 74.8051 45.3256 74.7101 45.63C74.6401 45.94 74.5801 46.19 74.5201 46.51C74.2002 48.0083 74.3757 49.5701 75.0201 50.96C75.1669 51.2038 75.3341 51.4347 75.5201 51.65C75.6429 51.7697 75.7945 51.8558 75.9601 51.9C75.9601 51.97 76.0301 51.9 76.1501 51.9C75.9575 51.6258 75.7902 51.3345 75.6501 51.03C75.4601 50.65 75.4601 50.27 75.2701 49.96C75.2408 49.9583 75.2113 49.9627 75.1838 49.973C75.1562 49.9833 75.1311 49.9994 75.1102 50.02H75.0701ZM75.0701 46.02C74.809 46.9578 74.7646 47.9426 74.9401 48.9C74.9401 48.97 75.0001 48.97 75.0701 49.03C75.1301 48.34 75.1901 47.71 75.2501 47.08C75.3644 46.6677 75.3433 46.2295 75.1901 45.83C75.1701 45.88 75.1102 45.94 75.1102 46.01L75.0701 46.02ZM82.9702 41C82.8112 41.222 82.6644 41.4523 82.5302 41.69C82.2802 42.13 82.3502 42.44 82.6602 42.63C82.8752 42.7365 83.0658 42.8863 83.2202 43.07C83.6002 43.51 84.1002 43.44 84.6002 43.38C85.048 43.1852 85.4054 42.8279 85.6002 42.38C86.0402 41.31 86.2902 41.12 86.6702 40.05C87.6702 37.67 85.6702 38.23 84.6702 38.99C84.0403 39.5893 83.4831 40.2605 83.0101 40.99L82.9702 41Z" fill="#FC8156"/>
  <path d="M114.2 47.2C113.89 47.83 112.82 49.2 112.82 49.9C112.708 50.0201 112.58 50.1244 112.44 50.21C112.229 50.4279 112.06 50.682 111.94 50.96C111.813 51.202 111.666 51.4328 111.5 51.65C110.775 53.0878 109.8 54.3848 108.62 55.48C108.24 55.8 104.91 59 104.62 59.31C102.8 60.82 100.36 60.13 98.5398 60.19C98.0858 60.2187 97.6318 60.1328 97.2198 59.94C96.4112 59.6125 95.6665 59.1454 95.0198 58.56C94.4598 57.18 93.0198 56.24 92.8898 54.29C92.8298 53.79 92.5698 53.47 92.5098 52.97C92.5698 50.97 92.8898 48.97 93.1398 46.88C93.5198 45.44 93.8298 43.88 94.0798 42.43C94.4554 40.5162 95.1304 38.6736 96.0798 36.97C96.7098 35.34 97.2698 35.21 97.8998 33.58C98.3287 32.715 98.8096 31.8768 99.3398 31.07C99.7944 30.1125 100.319 29.19 100.91 28.31C102.007 26.3744 103.311 24.5637 104.8 22.91C105.74 21.97 106.8 20.97 107.69 20.15C108.192 19.6889 108.762 19.3078 109.38 19.02C109.558 18.9119 109.75 18.8278 109.95 18.77C110.395 18.6696 110.859 18.6896 111.294 18.8278C111.729 18.9661 112.119 19.2178 112.424 19.5568C112.73 19.8959 112.94 20.3102 113.032 20.7572C113.124 21.2042 113.096 21.6676 112.95 22.1C112.82 22.85 112.76 23.6 112.57 24.29C112.466 24.8907 112.253 25.467 111.94 25.99C111.51 27.0697 110.964 28.0992 110.31 29.06C109.87 29.88 109.37 30.69 108.93 31.51C108.18 32.64 107.55 33.83 106.8 34.9C105.48 36.66 104.35 38.54 103.16 40.3C101.16 43.62 101.4 44.19 100.71 47.51C100.552 48.6327 100.488 49.7667 100.52 50.9C100.58 51.28 100.77 53.72 100.84 53.98C100.991 54.6796 101.244 55.3534 101.59 55.98C101.71 56.24 102.59 56.42 102.91 56.55C103.35 56.86 106.67 54.55 107.11 54.29C108.109 53.613 109.017 52.8097 109.81 51.9C110.656 50.9627 111.394 49.9328 112.01 48.83C113.13 47.32 113.51 46.07 114.7 44.44C115.58 44.31 115.08 45.63 114.2 47.2ZM104.2 35.9C105.704 33.5909 107.086 31.2042 108.34 28.75C109.03 27.43 109.6 26.11 110.29 24.8C110.584 23.8774 110.795 22.9303 110.92 21.97C111.04 21.66 111.04 21.47 110.73 21.6C110.479 21.6481 110.242 21.7543 110.04 21.91C109.151 22.2733 108.401 22.9109 107.9 23.73C107.46 24.23 107.15 24.8 106.65 25.3C106.126 25.9439 105.741 26.6897 105.52 27.49C105.21 28.12 104.89 28.87 104.58 29.49C104.095 30.8568 103.528 32.1926 102.88 33.49C102.63 34.11 102.44 34.8 102.19 35.43C101.44 37.56 101.75 36.5 101.06 38.63C100.88 39.13 101 40.63 101.82 39.7C102.71 38.29 103.35 37.35 104.16 35.9H104.2Z" fill="#FC8156"/>
</svg>