<svg width="128" height="49" viewBox="0 0 128 49" fill="none" xmlns="http://www.w3.org/2000/svg">
  <path d="M108.41 21.8518C108.41 21.6719 108.3 21.4919 108.24 21.3219L108 20.8019C107.85 20.2819 107.59 19.7219 107.35 19.1319C107.057 18.5713 106.722 18.0331 106.35 17.5219C105.862 16.8001 105.237 16.1816 104.51 15.7019C103.697 15.2191 102.836 14.8236 101.94 14.5219C101.109 14.2512 100.26 14.0374 99.3997 13.8819C97.8164 13.6115 96.2155 13.4577 94.6097 13.4219C93.0697 13.4219 91.6097 13.4219 90.2597 13.4219C88.9097 13.4219 87.5397 13.4219 86.2597 13.5519C81.1697 13.7619 76.1297 13.7819 71.2597 13.9019C68.6597 13.9552 66.1197 14.0586 63.6397 14.2119L63.2097 13.9119C62.6005 13.9724 62.0038 14.1241 61.4397 14.3619L60.2497 14.4619C59.2411 14.2847 58.2033 14.3885 57.2497 14.7619C56.3397 14.6119 56.9297 14.5119 56.3997 14.3719C55.0197 14.4719 53.5197 14.5019 51.9897 14.4819C51.1584 14.3067 50.3088 14.2328 49.4597 14.2619V14.3819C45.5153 14.2293 41.5974 13.6663 37.7697 12.7019C35.2497 13.6319 32.0797 12.9019 29.1697 13.3119C27.4497 13.4619 25.5597 13.7319 23.7697 13.9519C22.8697 14.0619 22.0297 14.1419 21.1097 14.2419C20.1897 14.3419 19.3597 14.5219 18.5697 14.7019C17.6298 14.9397 16.7461 15.3611 15.9697 15.9419C15.2446 16.4853 14.6101 17.1401 14.0897 17.8819C12.7021 20.0163 11.8702 22.4639 11.6697 25.0018C11.6697 25.1118 11.6197 25.2218 11.5997 25.3318C11.5797 25.4418 11.5997 25.6818 11.5997 25.8618C11.5927 27.1715 11.8195 28.4719 12.2697 29.7018C12.5007 30.2867 12.84 30.8227 13.2697 31.2818L13.6697 31.7018C14.6697 33.2018 15.9597 34.8218 15.9597 35.5118C18.6997 37.6217 22.4597 37.6117 25.9597 37.5117L41.7397 37.0618C42.2164 37.1013 42.6865 37.1987 43.1397 37.3518L43.2297 37.0218L49.3997 36.8518C53.7197 37.2918 59.7897 37.1018 64.9497 37.1118C66.0597 37.1118 66.7797 36.4818 67.9497 36.4718L69.5297 36.8018C70.6455 36.7392 71.7639 36.7392 72.8797 36.8018C75.6261 37.2115 78.4066 37.3455 81.1797 37.2018C84.3197 37.1218 87.5297 37.0318 90.0597 37.0918C91.8161 37.117 93.5709 36.973 95.2997 36.6618C97.2458 36.3137 99.1521 35.771 100.99 35.0418C101.455 34.8892 101.906 34.6986 102.34 34.4718C102.57 34.3618 102.81 34.1918 103.06 34.0418C103.31 33.8911 103.551 33.7241 103.78 33.5418C104.788 32.7707 105.666 31.8421 106.38 30.7918C107.16 29.6748 107.77 28.4481 108.19 27.1518C108.62 25.8053 108.813 24.3944 108.76 22.9818C108.675 22.5961 108.557 22.2182 108.41 21.8518Z" fill="#424242"/>
  <path d="M63.8001 38.4619H63.0801C63.3701 38.4619 63.6101 38.4719 63.8001 38.4619Z" fill="#424242"/>
  <path d="M63.46 37.8218C63.46 38.0018 65.46 38.4518 63.8 38.4618C64.72 38.4618 65.55 38.4618 64.8 38.8118C66.59 38.8118 64.93 38.3318 66.11 38.0718C65.1 38.3718 64.33 37.9118 63.46 37.8218Z" fill="#424242"/>
  <path d="M70.2701 38.1519C69.3801 38.1519 68.5801 37.792 67.8301 38.1519C68.6373 38.2928 69.4629 38.2928 70.2701 38.1519Z" fill="#424242"/>
  <path d="M68.1799 39.3418L68.6599 39.2318L67.4199 38.8718L68.1799 39.3418Z" fill="#424242"/>
  <path d="M73.1399 38.8518C73.4799 38.9118 73.7399 38.9918 73.7999 39.1118L70.6499 39.2518L73.4899 39.4518C75.2099 39.1218 74.3699 38.9818 73.1399 38.8518Z" fill="#424242"/>
  <path d="M69.4902 38.6018C70.3558 38.7101 71.228 38.7569 72.1002 38.7418C71.5254 38.7415 70.9568 38.6224 70.4302 38.3918L69.4902 38.6018Z" fill="#424242"/>
  <path d="M73.1401 38.8518C72.8097 38.7925 72.4756 38.7558 72.1401 38.7419L73.1401 38.8518Z" fill="#424242"/>
  <path d="M76.12 39.6018H76.57L76.69 39.1118C75.77 39.2218 76.14 39.5118 76.12 39.6018Z" fill="#424242"/>
  <path d="M79.5898 39.9319C80.8998 40.0119 79.9599 40.2219 79.9099 40.4119C80.9606 40.5335 82.0241 40.4862 83.0599 40.2719C81.92 40.0261 80.7557 39.912 79.5898 39.9319Z" fill="#424242"/>
  <path d="M83.7801 40.9319H81.1001C81.6701 41.4919 82.6701 40.9919 83.7801 40.9319Z" fill="#424242"/>
  <path d="M86.6699 40.2119L88.1599 40.6219C88.3999 40.5619 88.16 40.4219 88.7 40.3119C88.0287 40.2075 87.3482 40.1739 86.6699 40.2119Z" fill="#424242"/>
  <path d="M14.61 9.15185C14.88 8.83185 15.15 8.45185 15.42 8.07185C16.0972 7.08721 17.1048 6.3777 18.26 6.07185C18.6304 6.00414 19.0126 6.07917 19.33 6.28185C19.8034 6.54992 20.3608 6.62854 20.89 6.50185C21.53 6.39185 21.96 6.50185 22.13 6.87185C22.0895 7.10297 22.0694 7.33721 22.07 7.57185C22.1147 7.77628 22.1137 7.98807 22.067 8.19206C22.0203 8.39606 21.9292 8.58721 21.8 8.75185C21.7 8.75185 21.8 8.91185 21.8 9.02185C21.75 10.2519 22.07 9.18185 21.53 10.4118C21.26 11.0018 21.21 11.5418 20.99 12.0218C18.42 18.5218 21.1 15.3018 23.25 12.4518C23.4847 11.8608 23.8506 11.3309 24.32 10.9018C25.07 9.82185 25.99 8.90185 26.74 7.73185C27.949 6.12548 29.3955 4.71261 31.03 3.54185C31.62 3.17185 32.16 2.54185 32.69 2.69185C33.2228 2.7336 33.7294 2.93976 34.14 3.28185C34.518 3.58771 34.828 3.9692 35.05 4.40185C35.16 4.46185 35.21 4.51185 35.27 4.51185C36.02 4.67185 36.02 5.42185 36.02 6.12185C35.9528 6.25964 35.8992 6.40366 35.86 6.55185C35.1248 7.95564 34.5832 9.4526 34.25 11.0018C34.14 11.7518 34.03 12.5618 33.98 13.2618C33.93 13.9618 33.82 14.7618 33.66 15.5618C33.649 16.3173 33.4045 17.0509 32.96 17.6618C32.96 17.6618 32.96 17.7618 32.96 17.8718C33.34 18.1918 32.8 18.5718 32.64 18.9418C32.64 19.1118 32.48 19.3218 32.64 19.4818C32.7304 19.7948 32.7431 20.125 32.6769 20.444C32.6107 20.7629 32.4676 21.0608 32.26 21.3118C32.2512 21.4183 32.2512 21.5254 32.26 21.6318C32.1 22.1118 31.99 22.5418 31.88 22.9718C31.93 22.9718 31.93 22.9718 32.15 22.8118C31.99 23.5618 31.08 24.2018 31.34 24.9018C31.72 24.9018 31.67 25.2818 31.56 25.7618C31.3644 26.8575 31.0768 27.9346 30.7 28.9818C30.7 28.9818 30.7 29.0919 30.7 29.1419C30.97 29.6819 30.33 30.4319 30.49 31.1419C30.49 31.5619 30.22 32.1419 30.49 32.6419C30.4233 33.0561 30.2147 33.4344 29.9 33.7119C29.79 33.9319 29.52 34.0919 29.31 34.3018C28.99 35.0518 28.93 35.1119 28.24 35.1618C28.0207 35.1811 27.8033 35.2178 27.59 35.2719C27.22 35.2719 26.95 35.2719 26.79 35.0518C26.6763 34.9328 26.5238 34.8583 26.36 34.8419C25.66 34.6819 25.44 34.0319 25.77 33.3419C26.2187 31.5381 26.5527 29.7078 26.77 27.8619C26.9166 27.405 27.04 26.9411 27.14 26.4718C27.36 25.8218 27.52 25.0719 27.84 24.3219C27.84 24.5419 27.73 24.8019 27.73 25.0719C27.89 24.9619 27.89 24.9619 27.95 24.9619C28.0874 24.5775 28.1943 24.183 28.27 23.7819C28.5704 22.845 28.7519 21.874 28.81 20.8919C28.7819 20.8621 28.7662 20.8228 28.7662 20.7819C28.7662 20.7409 28.7819 20.7016 28.81 20.6719C29.34 20.1318 28.86 19.6019 29.29 19.0618C29.45 18.9018 29.4 18.6918 29.45 18.5818C29.38 17.9523 29.5516 17.3197 29.93 16.8118V16.5019C29.55 17.3019 29.23 18.1118 28.93 18.9118H28.67C29.47 14.1918 29.67 13.6018 26.04 18.7018C25.99 18.6418 25.93 18.5918 25.93 18.5418C25.8784 18.5227 25.8216 18.5227 25.77 18.5418C25.7394 18.7085 25.6855 18.8701 25.61 19.0218C25.4014 19.6329 24.9591 20.1363 24.38 20.4219C24.3079 20.4417 24.2436 20.4829 24.1954 20.54C24.1472 20.5971 24.1174 20.6675 24.11 20.7418C23.898 20.9131 23.73 21.1325 23.62 21.3818C23.03 23.0518 19.55 27.9818 18.53 29.6518C18.0115 30.3686 17.3839 30.9996 16.67 31.5218C16.67 31.2018 16.62 30.9918 16.78 30.7718H16.67C16.4404 31.1456 16.19 31.5062 15.92 31.8519C15.92 31.7919 15.87 31.7918 15.81 31.7418C15.6837 32.0375 15.4843 32.2963 15.2307 32.4939C14.9771 32.6915 14.6775 32.8216 14.36 32.8718C13.4746 33.2382 12.4915 33.2945 11.57 33.0319C10.9833 32.9462 10.4191 32.7457 9.90997 32.4418C9.52997 32.1718 9.47999 32.2218 9.85999 31.5818C10.35 30.729 10.8875 29.9044 11.47 29.1119C12.0346 28.476 12.3413 27.6521 12.33 26.8018C13.51 20.8518 16.83 13.2818 12.43 20.1518C11.9109 21.086 11.3013 21.9669 10.61 22.7819C8.88999 26.4819 4.61001 31.9519 4.01001 35.9319C3.94087 36.3414 3.81287 36.7389 3.63 37.1119C3.31 37.5919 3.03996 37.6419 2.76996 37.4319C2.49996 37.2219 2.56001 37.3719 2.51001 37.3219C2.24001 36.6819 1.7 36.5719 1 36.4619C0.639728 36.3654 0.300599 36.2026 0 35.9818C0 35.9818 -2.44007e-06 35.6618 0.0599976 35.5518C0.9364 33.8804 1.56947 32.0924 1.94 30.2418C2.03844 29.5671 2.17869 28.8992 2.35999 28.2418C2.52999 27.4319 3.86996 24.2419 4.07996 23.4619L4.72998 20.8919C5.14998 19.2219 5.53001 17.5619 6.01001 15.8919C6.11688 15.5395 6.19051 15.1779 6.22998 14.8118C6.36475 13.5172 6.7022 12.2517 7.22998 11.0618C7.38998 10.6818 7.44997 10.2518 7.65997 9.82185C7.78275 9.42133 7.92627 9.02746 8.08997 8.64185C8.24997 8.27185 8.46999 8.10185 8.73999 8.21185C8.99999 8.48185 9.37996 8.70185 9.64996 8.96185C9.91996 9.22185 9.76 9.50185 9.81 9.82185C9.63729 10.9117 9.38665 11.9878 9.06 13.0418C7.82 19.0418 12.44 12.1818 13.06 11.2218C13.49 10.4918 14.13 9.85185 14.61 9.15185ZM11.61 30.5618C11.67 30.4518 11.72 30.3418 11.88 30.0818V29.8118C11.7981 29.9546 11.6895 30.0802 11.56 30.1819C11.5738 30.3116 11.5532 30.4427 11.5 30.5618H11.61ZM18.96 20.0918C19.2564 19.6617 19.5268 19.2142 19.77 18.7519C20.0937 17.917 20.6277 17.1798 21.32 16.6119C21.505 16.3788 21.6195 16.0978 21.65 15.8018C20.4194 17.1938 19.4139 18.7694 18.67 20.4718C18.811 20.373 18.9274 20.243 19.01 20.0918H18.96ZM24.22 12.8519C24.2373 12.6861 24.3158 12.5328 24.44 12.4219C25.11 11.5719 25.6992 10.6613 26.2 9.70185C25.1357 10.8539 24.2186 12.1337 23.47 13.5118C23.641 13.4615 23.8 13.3771 23.9375 13.2637C24.075 13.1503 24.1881 13.0102 24.27 12.8519H24.22Z" fill="#FC8156"/>
  <path d="M35.67 21.2818C35.1061 20.233 34.7656 19.0788 34.67 17.8918C34.5494 16.9761 34.7586 16.0474 35.2601 15.2718C35.2964 15.2011 35.3488 15.1398 35.413 15.093C35.4773 15.0461 35.5516 15.0149 35.6301 15.0018C36.1329 14.5938 36.6717 14.2323 37.24 13.9218C37.7597 13.6203 38.3745 13.5273 38.96 13.6618C39.39 13.6618 40.57 14.7318 40.84 14.9418C41.1492 15.2403 41.4838 15.5113 41.84 15.7518C42.3265 16.1899 42.6945 16.7437 42.91 17.3618C43.0396 17.7669 43.2001 18.1613 43.39 18.5418C43.5337 19.0507 43.644 19.5685 43.72 20.0918C43.74 20.5253 43.7936 20.9566 43.8801 21.3818C43.8801 21.4418 43.8801 21.4418 43.8801 21.5418C43.7201 20.6918 43.8801 21.9218 43.8801 22.0818C43.9356 22.6906 43.9356 23.3031 43.8801 23.9118C43.7201 24.2318 44.04 24.6018 44.47 24.6018C47.1 24.4418 48.1201 24.8218 50.6901 24.3918C50.9601 24.2818 51.23 24.1218 51.55 23.9618C51.66 23.9118 51.8201 23.8018 51.9301 23.7418C51.9672 23.8182 51.9865 23.9019 51.9865 23.9868C51.9865 24.0717 51.9672 24.1555 51.9301 24.2318C51.7701 24.5018 52.3 24.6018 52.09 24.8218C50.48 26.5318 45.54 26.4818 43.61 26.4818H43.4501C43.2901 26.4818 43.1301 26.4818 43.1301 26.6418C43.1301 26.8018 43.07 26.8018 43.02 26.9118C42.7836 27.8384 42.4483 28.7369 42.02 29.5918C41.7658 30.1737 41.429 30.716 41.02 31.2018C40.8289 31.5493 40.5746 31.8579 40.27 32.1118C40.16 32.1718 40.05 32.2818 39.89 32.3818C39.7462 32.4484 39.6322 32.566 39.5701 32.7118C39.1786 33.1846 38.6571 33.5323 38.0701 33.7118C37.8763 33.7453 37.692 33.8203 37.53 33.9318C36.809 34.1077 36.0583 34.1248 35.33 33.9818C34.8614 33.8886 34.4218 33.6848 34.0478 33.3874C33.6738 33.0899 33.3763 32.7075 33.18 32.2718C33.0201 31.8418 32.8601 31.2718 32.7001 30.8218C32.578 29.8431 32.5612 28.8541 32.65 27.8718C32.7703 26.8252 33.0786 25.8089 33.5601 24.8718C34.0545 23.7189 34.7297 22.6521 35.5601 21.7118C35.7201 21.7118 35.72 21.5518 35.77 21.3918C35.7616 21.3677 35.7484 21.3455 35.7313 21.3266C35.7141 21.3077 35.6932 21.2925 35.67 21.2818ZM42.05 19.1318C41.9606 18.5517 41.8371 17.9774 41.6801 17.4118C41.5572 16.9195 41.2971 16.4722 40.9301 16.1218C40.7336 15.8714 40.497 15.6552 40.23 15.4818C39.9201 15.2168 39.5852 14.9823 39.23 14.7818C38.59 14.2518 37.41 15.3718 37.03 15.7818C35.58 17.7818 37.0301 20.6118 38.3201 22.0618C39.8801 25.1218 42.72 24.0618 42.08 20.4518C42.2009 20.0173 42.1835 19.5559 42.03 19.1318H42.05ZM37.28 29.5918C37.2302 29.8756 37.2101 30.1639 37.22 30.4518C37.12 30.5618 37.22 30.6118 37.28 30.7218C37.3297 30.863 37.4076 30.9926 37.509 31.1027C37.6105 31.2127 37.7333 31.3009 37.8701 31.3618C37.9201 31.3618 37.92 31.3618 37.97 31.3618C38.02 31.3618 38.1401 31.2518 38.1901 31.2018C39.0791 30.1649 39.7796 28.9804 40.2601 27.7018C40.4775 27.292 40.6582 26.8636 40.8 26.4218C39.5601 25.8818 38.97 26.3618 38.28 27.2818C37.8084 27.9867 37.4633 28.7684 37.2601 29.5918H37.28Z" fill="#FC8156"/>
  <path d="M66.56 24.4419C66.23 24.8719 65.91 25.3519 65.56 25.7819C65.175 26.306 64.8402 26.8651 64.56 27.4519C64.56 27.4519 64.56 27.6119 64.51 27.6119C64.13 28.1419 63.81 28.6819 63.44 29.1119C62.85 29.7519 62.31 30.3419 61.72 30.9319C61.1605 31.4467 60.5469 31.8993 59.8899 32.2819C59.027 32.7892 58.1117 33.2016 57.16 33.5119C56.2475 33.4569 55.3325 33.4569 54.42 33.5119C53.67 33.6719 52.06 32.9719 51.36 32.7119C50.618 32.4008 49.9162 32.0012 49.2699 31.5219C48.7544 31.0957 48.3347 30.5653 48.0383 29.9656C47.7419 29.3659 47.5755 28.7104 47.55 28.0419C47.45 27.1313 47.45 26.2125 47.55 25.3019C47.6069 24.7557 47.7174 24.2164 47.88 23.6919C48.04 23.3119 48.14 22.9419 48.3 22.5619C48.7228 21.4633 49.2449 20.4056 49.86 19.4019C50.02 19.1819 50.13 18.9719 50.29 18.7519C50.67 18.131 51.1421 17.5713 51.69 17.0919C52.3221 16.5218 52.9829 15.9844 53.67 15.4819C53.9924 15.2374 54.3854 15.1041 54.79 15.1019C54.9573 15.0928 55.1224 15.0591 55.28 15.0019C55.6536 14.7906 56.0822 14.6965 56.51 14.7319C57.1488 14.6936 57.7801 14.8852 58.29 15.2719C58.34 15.2719 58.39 15.3219 58.45 15.3219C58.5078 15.327 58.5653 15.309 58.61 15.2719C58.77 15.1619 58.88 15.1019 59.04 15.2119C59.1259 15.2814 59.191 15.3732 59.2281 15.4773C59.2651 15.5814 59.2727 15.6938 59.25 15.8019C59.2053 15.9149 59.1866 16.0364 59.1952 16.1576C59.2039 16.2788 59.2397 16.3964 59.3 16.5019C59.36 16.5019 59.3 16.6619 59.36 16.7119L59.04 17.2019C59.0788 17.541 59.1491 17.8758 59.25 18.2019C59.3774 18.6925 59.4511 19.1954 59.47 19.7019C59.4945 19.968 59.4945 20.2358 59.47 20.5019C59.2513 21.4412 58.9467 22.3584 58.56 23.2419C58.5115 23.4016 58.4209 23.5452 58.2977 23.6578C58.1746 23.7704 58.0233 23.8478 57.86 23.8819C57.75 23.8819 57.64 23.9419 57.54 23.9419C57.4205 23.945 57.3037 23.9061 57.2099 23.8319C56.9128 23.5795 56.5746 23.38 56.2099 23.2419C56.2099 23.1819 56.1 23.1819 56.05 23.1319C55.9603 23.0773 55.8905 22.9954 55.8509 22.8982C55.8113 22.801 55.8039 22.6936 55.8299 22.5919C55.8899 22.3319 55.94 22.0619 55.99 21.8419C56.2707 20.789 56.6044 19.751 56.99 18.7319C56.9892 18.6224 57.0095 18.5137 57.05 18.4119C56.9827 18.4731 56.9089 18.5268 56.8299 18.5719C56.4636 19.2213 56.0314 19.8312 55.54 20.3919C55.1062 21.0017 54.7312 21.6513 54.42 22.3319C53.99 23.2419 53.56 24.1019 53.13 25.0119C52.7073 25.8519 52.3722 26.7332 52.13 27.6419C52.052 27.9234 51.9984 28.2112 51.97 28.5019C51.9193 28.8828 51.9747 29.2704 52.13 29.6219C52.3 29.9419 52.46 30.3219 52.62 30.7019C52.7424 30.9286 52.8864 31.1429 53.05 31.3419C53.31 31.6619 54.66 31.1319 55.05 31.0719C56.7596 30.7084 58.37 29.9783 59.7699 28.9319C60.8171 28.1283 61.8186 27.2669 62.7699 26.3519C63.0399 26.0319 63.31 25.7119 63.57 25.3519C64.06 24.7119 65.57 23.6419 66.04 22.9419C66.31 22.5619 67.17 22.0819 67.44 21.7119C67.71 21.3419 67.44 22.4619 67.71 22.3019C67.4318 23.067 67.0445 23.7878 66.56 24.4419Z" fill="#FC8156"/>
  <path d="M74.67 32.0619C74.9301 32.5869 75.2345 33.0887 75.58 33.5619C75.6503 33.7501 75.7757 33.9128 75.9398 34.0287C76.1039 34.1447 76.2991 34.2085 76.5 34.2119C77.0721 34.3483 77.6732 34.2921 78.21 34.0519C78.75 33.8919 80.68 32.3319 81.27 32.0519C81.49 31.9419 83.6901 29.5819 83.9501 29.4219C84.788 28.4454 85.525 27.3866 86.15 26.2619C86.69 25.4019 87.15 24.4319 87.66 23.5719C87.76 23.3619 87.87 23.1419 87.98 22.8819C88.09 22.6219 88.09 22.4519 88.14 22.2319C88.41 22.9819 89.14 22.3919 88.89 22.9319C88.7959 23.154 88.7418 23.3909 88.73 23.6319C88.475 24.3349 88.1394 25.006 87.73 25.6319C87.5044 26.379 87.1993 27.0998 86.8201 27.7819V27.8919C86.5001 28.5319 86.01 29.2319 85.69 29.8919C85.32 30.3219 82.79 33.1119 82.36 33.4919C82.0931 33.7271 81.7844 33.9102 81.4501 34.0319C80.6501 34.4619 78.55 36.1719 77.75 36.3919C77.2055 36.5296 76.6501 36.6199 76.09 36.6619C75.666 36.6903 75.2409 36.6283 74.8426 36.4801C74.4444 36.3318 74.0822 36.1006 73.78 35.8019C73.51 35.4819 73.19 35.1019 72.92 34.7219C72.33 33.7219 71.58 32.5819 71.04 31.4019C70.56 30.8119 70.4 30.3219 69.91 31.0219C69.81 31.1819 69.8101 31.5019 69.7001 31.6719C69.4998 31.9939 69.3194 32.3278 69.16 32.6719C69.0449 33.0249 68.8835 33.3612 68.68 33.6719C68.6107 33.7737 68.5133 33.8533 68.3998 33.9012C68.2863 33.9491 68.1614 33.9632 68.04 33.9419C67.8934 33.9243 67.7448 33.9394 67.6048 33.9861C67.4647 34.0327 67.3367 34.1099 67.23 34.2119C66.11 34.6919 65.68 34.6919 64.87 33.9919C64.4024 33.6363 64.0166 33.1845 63.7389 32.6669C63.4611 32.1493 63.2978 31.5781 63.2601 30.9919C63.2153 30.8915 63.198 30.7811 63.21 30.6719C63.2995 29.8328 63.2793 28.9857 63.15 28.1519C63.0899 27.0785 63.11 26.0022 63.21 24.9319C63.2886 24.4684 63.3421 24.0011 63.37 23.5319C63.4921 22.0378 63.7806 20.562 64.23 19.1319C64.5 18.2719 64.76 17.3619 65.09 16.5619C65.6043 15.0299 66.195 13.5247 66.86 12.0519C67.23 11.4119 67.45 10.7119 67.86 10.1219C68.8041 8.16463 69.8626 6.26468 71.03 4.43186C71.7489 3.33179 72.5764 2.30665 73.5 1.37186C73.87 1.05186 74.25 0.671858 74.68 0.371858C75.0773 0.112043 75.5457 -0.0173033 76.02 0.00185935C76.02 0.00185935 76.18 0.161858 76.29 0.211858C76.6621 0.781494 77.1577 1.26001 77.74 1.61186C78.7196 2.36427 79.5534 3.28949 80.2001 4.34186C80.5566 4.86284 80.7451 5.48055 80.74 6.11186V6.60186C80.7042 6.72453 80.6346 6.83462 80.539 6.91951C80.4435 7.00441 80.3261 7.06067 80.2001 7.08186C80.0899 6.98832 79.9648 6.91395 79.83 6.86186C79.72 6.70186 79.51 6.60186 79.4 6.44186C78.86 6.01186 78.4 6.06186 77.84 6.65186C77.36 7.08186 76.84 7.65186 76.34 8.15186C76.2698 8.35111 76.1611 8.5346 76.02 8.69186C75.48 9.55186 74.89 10.3019 74.35 11.0519C74.3237 11.1883 74.2692 11.3177 74.19 11.4319C73.9815 12.0114 73.7133 12.5677 73.39 13.0919C73.01 13.8419 72.58 14.5919 72.21 15.4519C71.99 15.8319 71.83 16.1519 71.62 16.5819C71.19 17.5819 70.62 18.6719 70.22 19.7419C69.6192 21.0352 69.1177 22.3724 68.72 23.7419C68.72 24.0719 68.5601 24.2819 68.51 24.5519C68.3862 25.2276 68.2225 25.8954 68.02 26.5519C67.81 28.2719 68.29 28.2119 68.67 27.6219C69.47 26.3919 70.06 24.9419 70.97 23.7019C71.88 22.3971 72.9041 21.1756 74.03 20.0519C74.4999 19.6347 75.0574 19.3284 75.6614 19.1553C76.2654 18.9822 76.9005 18.9469 77.52 19.0519C77.6632 19.0603 77.8009 19.1101 77.9163 19.1953C78.0317 19.2805 78.1199 19.3975 78.17 19.5319C78.2166 19.6671 78.2878 19.7925 78.38 19.9019C78.7931 20.4846 79.0006 21.1882 78.97 21.9019C78.9812 23.2315 78.7822 24.5545 78.38 25.8219C78.33 26.0319 78.33 26.1419 78.27 26.3519C78.0347 27.0445 77.6976 27.6983 77.27 28.2919C76.95 28.5519 76.74 28.8819 76.47 29.0919C76.1543 29.5308 75.7259 29.8764 75.23 30.0919C74.9923 30.1564 74.7612 30.2435 74.54 30.3519C74.37 30.3519 74.37 30.5719 74.21 30.6219C74.252 31.1306 74.4093 31.623 74.67 32.0619ZM63.35 27.0619V28.2019C63.4753 27.8375 63.4892 27.4441 63.39 27.0719L63.35 27.0619ZM73.15 23.7019C72.9927 24.1922 72.7779 24.6621 72.51 25.1019C72.3 25.6419 71.97 26.0119 71.81 26.4919C71.22 27.3519 72.89 26.8219 73.21 26.4919C74.5248 25.3958 75.5255 23.9707 76.11 22.3619C76.96 19.5719 75.95 19.8419 74.6 21.5619C74.0051 22.1929 73.5155 22.9154 73.15 23.7019Z" fill="#FC8156"/>
  <path d="M91.0799 28.6319C90.214 28.9492 89.3091 29.1476 88.3899 29.2219C87.6709 29.1752 86.9647 29.0096 86.2999 28.7319C84.9599 27.9319 84.9099 27.5519 84.6399 25.7319C84.5064 24.9717 84.6003 24.189 84.9099 23.4819C85.1799 22.2519 88.0699 17.7919 88.5599 16.6619C88.8357 16.0253 89.1705 15.416 89.5599 14.8419C89.7199 14.4619 89.9899 14.3619 90.2599 14.2019C90.5299 14.0419 91.0099 14.0419 91.2599 13.7719C92.0599 13.3419 91.4699 12.9619 92.0099 12.9119C92.2408 12.9001 92.4708 12.9482 92.6775 13.0516C92.8843 13.155 93.0608 13.3101 93.1899 13.5019C93.4099 13.5519 93.4099 13.8219 93.6199 14.0419C93.8299 14.2619 93.7299 14.3619 93.7299 14.5719C93.4099 15.9119 92.2199 18.4419 91.8999 19.7219C91.6701 20.4382 91.5093 21.1749 91.4199 21.9219C91.3338 22.4618 91.1723 22.987 90.9399 23.4819C90.8299 23.9119 90.5599 24.7119 90.8299 24.9319C91.0999 25.1519 91.1499 26.1119 91.4699 26.0019C92.7599 25.3019 94.4699 25.2519 95.1799 24.3919C95.6099 23.8019 95.8699 24.0719 96.2999 23.5319C96.572 23.2381 96.7919 22.8999 96.9499 22.5319C97.2699 21.8319 97.3199 22.0419 97.5899 21.4519C97.9406 20.7704 98.3559 20.1242 98.8299 19.5219C98.9865 19.0749 99.22 18.6586 99.5199 18.2919C100.06 18.1319 100.01 18.1819 100.22 18.2319C101.03 18.1819 100.33 18.2319 100.81 18.5019C100.92 18.7219 100.81 18.9319 100.97 19.0419C100.6 20.0419 100.54 21.1319 100.06 22.3119C99.8999 22.6919 100.06 22.3119 99.6799 22.8019C99.6686 23.2376 99.5409 23.6623 99.3099 24.0319C99.0899 24.5119 99.1499 25.1019 98.8299 25.5319C98.3999 27.3619 98.1799 28.3219 98.1799 28.5319C98.0199 29.2219 99.8999 29.7119 101.78 29.1219C103.578 28.0548 105.102 26.5823 106.23 24.8219C106.61 24.1819 106.93 23.5419 107.52 22.6819C108.11 21.8219 108.52 23.3219 108.27 23.6819C108.141 23.8834 108.034 24.0979 107.95 24.3219C107.52 24.6419 107.03 26.3219 106.66 26.6819C106.55 26.7919 106.61 26.9519 106.34 27.0619C105.394 28.2541 104.332 29.3495 103.17 30.3319C102.819 30.4518 102.483 30.6129 102.17 30.8119C101.886 31.1094 101.546 31.3474 101.17 31.5119C100.943 31.5843 100.74 31.7154 100.58 31.8919C100.46 31.8469 100.33 31.838 100.206 31.8665C100.081 31.8949 99.968 31.9594 99.8799 32.0519C98.8799 32.6419 94.5099 32.8519 94.1899 31.0519C93.8088 29.61 93.8088 28.0938 94.1899 26.6519V26.4319C93.2258 27.2628 92.1844 27.9995 91.0799 28.6319Z" fill="#FC8156"/>
  <path d="M120.75 24.6019C120.81 25.9419 121.23 25.4619 123.22 25.1419C124.201 24.9824 125.105 24.5128 125.8 23.8019C126.28 23.3119 126.87 23.9119 127.14 24.1719C126.936 24.6739 126.664 25.1451 126.33 25.5719C124.794 26.5232 123.036 27.0575 121.23 27.1219C119.89 27.4519 119.79 28.1219 119.3 29.2219L119.09 29.6519C118.895 30.2232 118.623 30.765 118.28 31.2619C118.186 31.3807 118.079 31.4881 117.96 31.5819L117.42 32.2219C117.197 32.6424 116.887 33.0106 116.51 33.3019L116.14 33.7219L115.6 34.2119C115.444 34.2617 115.276 34.2617 115.12 34.2119C114.954 34.0834 114.772 33.9759 114.58 33.8919C114.556 33.7294 114.556 33.5643 114.58 33.4019C114.47 32.9219 114.31 32.4919 113.83 32.4019C113.625 32.2682 113.443 32.1028 113.29 31.9119C113.128 31.662 112.904 31.4586 112.64 31.3219C112.388 31.0841 112.233 30.7622 112.204 30.4174C112.174 30.0725 112.273 29.7289 112.48 29.4519C112.639 29.0423 112.922 28.6927 113.29 28.4519C113.614 28.1882 113.974 27.9726 114.36 27.8119C114.983 27.5088 115.628 27.2547 116.29 27.0519C116.715 26.781 117.022 26.3595 117.15 25.8719C117.595 24.27 117.929 22.6395 118.15 20.9919V19.2419C118.159 19.1285 118.139 19.0147 118.09 18.9119C118.04 18.6519 117.77 18.5419 117.61 18.7519C117.556 18.7773 117.509 18.815 117.473 18.8619C117.436 18.9088 117.411 18.9636 117.4 19.0219C117.013 19.6009 116.678 20.2133 116.4 20.8519C115.59 22.4019 114.84 24.0719 114.04 25.5719C113.445 26.6529 112.908 27.7644 112.43 28.9019C111.62 30.8319 109.8 32.7619 109.1 34.9019C109.007 35.2862 108.801 35.6342 108.51 35.9019C108.24 36.0119 108.13 36.4319 108.13 36.7619C108.134 37.1412 108.08 37.5189 107.97 37.8819C107.892 38.0776 107.784 38.2598 107.65 38.4219C107.422 38.7038 107.224 39.0088 107.06 39.3319C106.486 40.6429 106.125 42.0371 105.99 43.4619C105.966 44.1132 105.893 44.7617 105.77 45.4019C105.763 45.6107 105.7 45.8139 105.588 45.99C105.475 46.166 105.317 46.3083 105.13 46.4019C104.826 46.5856 104.598 46.8734 104.49 47.2119C104.43 47.2119 104.27 47.4819 104.22 47.4819C104.17 47.4819 104 47.8519 103.89 48.0119C103.03 48.1819 102.5 47.5319 102.17 46.5119C101.874 45.4632 101.713 44.3812 101.69 43.2919C101.597 40.7457 101.724 38.1962 102.07 35.6719C102.17 34.6719 102.39 33.5819 102.55 32.6119C102.768 30.9636 103.102 29.3329 103.55 27.7319C104.137 25.3719 104.78 23.0652 105.48 20.8119C105.64 20.2719 105.86 19.8119 106.02 19.1519C106.66 17.5419 107.2 15.8219 107.84 14.1519C108.153 13.2894 108.514 12.4447 108.92 11.6219C109.029 11.5214 109.172 11.4656 109.32 11.4656C109.468 11.4656 109.611 11.5214 109.72 11.6219L111.01 12.4319C111.874 13.5034 112.38 14.818 112.46 16.1919C112.563 17.0711 112.509 17.9616 112.3 18.8219C111.98 20.1019 111.6 21.5019 111.12 22.8219C110.8 23.6819 110.47 24.7519 110.12 25.7219C109.26 28.7219 110.98 28.3519 111.36 27.4419C111.52 27.0119 112.36 25.9319 112.48 25.4419L114.25 21.7919C114.485 21.1669 114.823 20.5856 115.25 20.0719C115.63 19.6419 116 19.0719 116.43 18.6819C116.739 18.3491 117.158 18.1395 117.61 18.0919H118.52C119.01 17.9819 119.44 18.4119 119.87 18.7819C120.02 18.9049 120.145 19.0567 120.236 19.2284C120.327 19.4001 120.383 19.5883 120.4 19.7819C120.479 20.2083 120.533 20.639 120.56 21.0719L120.78 22.6319L120.75 24.6019ZM114.47 28.8419C114.278 28.9674 114.126 29.1452 114.032 29.3543C113.938 29.5635 113.906 29.7951 113.94 30.0219C113.99 30.2919 114.15 30.5119 114.31 30.5119C114.47 30.5119 114.58 30.4019 114.69 30.2919C114.968 30.1333 115.207 29.9146 115.39 29.6519C115.98 28.8419 116.19 27.9819 116.03 28.3119C115.44 28.5719 114.96 28.4719 114.47 28.8419Z" fill="#FC8156"/>
</svg>