<svg width="102" height="38" viewBox="0 0 102 38" fill="none" xmlns="http://www.w3.org/2000/svg">
  <path d="M64.9263 31.0646C63.6897 31.0646 62.4588 31.7937 61.5255 30.3645C61.2163 30.3645 61.823 27.5059 61.5255 26.0767H60.2597C59.9389 23.9357 60.5514 21.7889 60.2597 19.6421C60.2597 19.5843 60.2597 19.5322 60.2597 19.4801L64.9788 19.3991H60.2422C59.863 17.6226 58.708 18.8725 58.3989 17.5069C57.448 16.0834 58.9822 15.3601 59.9564 15.3544C59.6355 13.9251 60.5805 15.3544 60.5747 13.9251C60.5747 11.0666 60.5747 8.20228 59.2739 6.06707C58.953 5.34955 59.2739 3.20855 59.2739 1.7793C55.4589 1.7793 51.2998 1.7793 47.5548 4.67253C44.4515 6.8656 40.6016 3.84507 37.5391 6.25224C37.0724 6.61679 36.4366 6.09022 35.8416 5.92241C35.706 5.86677 35.5566 5.85302 35.413 5.88296C35.2694 5.9129 35.1382 5.98513 35.0366 6.09021C34.6673 6.56509 34.4445 7.13584 34.395 7.73357H35.3866C34.5175 9.89771 33.3333 7.73357 31.9917 8.57261C32.0967 9.99608 32.1375 10.7078 31.77 11.4658C32.6392 11.3848 33.7825 10.6268 34.4766 11.3328L34.5291 13.4738C34.2025 13.8383 33.765 13.6705 33.2983 13.5143C32.8316 13.358 32.3242 13.2076 31.9567 13.5953C32.015 14.3128 32.1375 15.7363 32.2017 16.448C32.2658 17.1597 31.91 17.1887 31.5542 17.2292C31.9158 17.1887 32.6158 17.1308 32.9541 17.1134C32.9891 17.7557 33.065 18.9883 33.1116 19.7463C32.4039 19.7799 31.6987 19.8552 31 19.972L33.1233 19.9372V19.9662C33.1641 20.6779 32.8667 20.6953 32.54 20.7242C32.6508 22.1477 32.54 23.6174 32.8492 24.2829C33.0941 24.2829 33.3566 24.2482 33.625 24.2308C33.1 24.6185 32.8258 25.7179 32.7791 26.9852C32.7565 28.2394 32.8365 29.4934 33.0183 30.7348C33.0183 30.0115 33.2925 32.1409 33.3275 31.4176C33.2884 31.9956 33.2884 32.5755 33.3275 33.1535C33.3275 33.7322 33.415 34.3108 33.485 34.849C33.5375 35.1094 33.5433 35.3698 33.5725 35.607C33.5965 35.8278 33.6454 36.0451 33.7183 36.2551C33.7533 36.4345 33.8 36.6891 33.8816 37.1346C33.8058 37.4066 34.5175 37.5397 35.9699 37.6496C37.4224 37.7596 38.7291 37.7885 40.1116 37.7769C42.8769 37.7279 45.6369 37.5173 48.3773 37.1462C53.8256 36.4981 59.268 35.4103 64.658 34.6696C65.2121 33.9231 64.9263 32.4997 64.9263 31.0646Z" fill="#424242"/>
  <path d="M11.8221 18.9893C11.9762 19.1035 12.1442 19.1976 12.3221 19.2693C13.5317 19.9594 14.6589 20.7847 15.6821 21.7293C17.225 23.1081 18.3159 24.9205 18.8121 26.9293C19.1513 28.565 18.8506 30.2685 17.9721 31.6893C17.6885 32.2873 17.3325 32.8481 16.9121 33.3593C16.6993 33.6493 16.4544 33.9143 16.1821 34.1493C15.1625 35.099 13.9666 35.8397 12.6621 36.3293C12.0722 36.6262 11.4074 36.7411 10.7521 36.6593C10.2467 36.6376 9.74514 36.7552 9.3021 36.9993C8.86899 37.2003 8.42099 37.3674 7.9621 37.4993C6.92188 37.7754 5.83577 37.8333 4.77209 37.6693C3.31497 37.5608 1.93559 36.9696 0.852096 35.9893C0.420977 35.5014 0.139024 34.8999 0.0397527 34.2564C-0.0595188 33.6129 0.0280646 32.9545 0.292095 32.3593C0.70469 31.3392 1.24934 30.3777 1.9121 29.4993C2.55199 28.5551 3.30416 27.6921 4.1521 26.9293C4.31179 26.7881 4.44401 26.6186 4.54209 26.4293C4.99209 25.5893 5.2221 25.4293 6.0521 25.5293C6.3921 25.4193 6.6121 24.9193 7.0521 25.0793C6.8321 25.1993 6.6621 25.3093 6.3221 25.4793C6.6021 25.4793 6.77209 25.5893 6.88209 25.5893C6.87219 25.8507 6.89233 26.1124 6.9421 26.3693C7.0021 26.5393 6.94209 26.7093 6.77209 26.9293C6.44209 27.3793 6.16209 27.8293 5.77209 28.3293C5.2239 28.9671 4.85773 29.7409 4.7121 30.5693C4.62817 31.0625 4.57141 31.5599 4.54209 32.0593C4.52312 32.1441 4.52133 32.2318 4.53683 32.3173C4.55234 32.4028 4.58482 32.4843 4.63237 32.557C4.67991 32.6297 4.74155 32.6922 4.81364 32.7407C4.88574 32.7891 4.96682 32.8227 5.0521 32.8393C5.552 33.0191 6.0919 33.0572 6.61209 32.9493C7.67018 32.8008 8.70513 32.5185 9.6921 32.1093C10.6921 31.6693 11.7621 31.2693 12.7721 30.7693C13.5656 30.4159 14.3007 29.9439 14.9521 29.3693C15.4521 28.9793 15.6221 28.5293 15.4521 28.1993C15.1569 26.9272 14.4547 25.7861 13.4521 24.9493C11.6318 23.5377 9.70614 22.2673 7.6921 21.1493C6.4891 20.4442 5.34832 19.6379 4.2821 18.7393C3.10729 17.8002 2.1517 16.616 1.4821 15.2693C0.202097 13.1493 1.3721 10.2693 3.1621 8.05929C4.84219 6.1511 6.88079 4.59158 9.1621 3.4693C9.8321 3.1893 10.5121 3.01929 11.1621 2.73929C14.2703 1.67274 17.5724 1.29068 20.8421 1.61929C21.8421 1.73929 22.6921 1.89929 23.6421 2.01929C24.5997 2.06713 25.5261 2.3748 26.3221 2.90929C26.4742 2.99583 26.5877 3.13694 26.6397 3.30404C26.6917 3.47113 26.6782 3.65174 26.6021 3.80929C26.5765 3.93803 26.5765 4.07055 26.6021 4.19929C26.5696 4.48364 26.5127 4.76468 26.4321 5.0393C25.9707 5.92613 25.6854 6.89396 25.5921 7.88929C25.4683 8.38841 25.2585 8.86215 24.9721 9.2893C24.7521 9.7393 24.4121 10.0693 24.1921 10.4593C23.9832 10.8383 23.6711 11.1504 23.2921 11.3593C22.7387 11.6517 22.1596 11.8927 21.5621 12.0793C21.4291 12.1638 21.2747 12.2087 21.1171 12.2087C20.9595 12.2087 20.8051 12.1638 20.6721 12.0793C19.8363 11.7769 18.9664 11.5787 18.0821 11.4893C16.2326 11.2026 14.3637 11.0589 12.4921 11.0593C11.9047 11.0988 11.3222 11.1925 10.7521 11.3393C10.0821 11.4493 9.4721 11.6193 8.8521 11.7293C4.8521 12.7293 7.1721 15.6493 9.1921 17.0993C10.1047 17.6778 10.9828 18.3088 11.8221 18.9893Z" fill="#FC8156"/>
  <path d="M31.6821 25.4193C31.6577 25.4021 31.6294 25.3912 31.5998 25.3877C31.5702 25.3841 31.5402 25.3879 31.5124 25.3988C31.4846 25.4097 31.46 25.4274 31.4408 25.4502C31.4215 25.4729 31.4082 25.5001 31.4021 25.5293C31.3421 25.5293 31.3421 25.5893 31.3421 25.6393C31.1221 26.1993 30.8421 26.5393 30.3421 26.4293C30.0621 26.7093 29.9521 26.9893 29.7321 27.2093C29.5871 27.2773 29.4606 27.3791 29.3631 27.5061C29.2657 27.6331 29.2001 27.7817 29.1721 27.9393C29.1721 28.0493 29.1121 28.0993 29.0621 28.2193C28.7821 28.6093 28.5021 28.8893 28.2721 29.2193C28.0522 29.7098 27.7073 30.134 27.2721 30.4493C27.0273 30.6804 26.8184 30.9467 26.6521 31.2393C26.6337 31.3003 26.5969 31.3542 26.5468 31.3936C26.4967 31.4329 26.4357 31.4559 26.3721 31.4593C26.0599 31.5647 25.7736 31.7352 25.5321 31.9593C24.9537 32.3173 24.3062 32.549 23.6321 32.6393C23.0363 32.6691 22.4423 32.5523 21.9021 32.2993C21.4672 32.0048 21.1149 31.6039 20.8786 31.1349C20.6423 30.6658 20.5299 30.1441 20.5521 29.6193C20.5342 29.3349 20.5716 29.0496 20.6621 28.7793C20.8012 27.0187 21.1025 25.2746 21.5621 23.5693C21.8421 22.5693 22.1821 21.7793 22.5621 20.9393C23.2921 19.4293 23.9021 17.8093 24.6321 16.2993C24.6454 16.1639 24.6826 16.0318 24.7421 15.9093C25.1404 14.612 25.7051 13.3717 26.4221 12.2193C26.6116 11.843 26.7786 11.4556 26.9221 11.0593C27.0552 11.0137 27.1983 11.0054 27.3358 11.0354C27.4733 11.0653 27.6 11.1324 27.7021 11.2293C28.3221 11.6193 28.9321 12.0593 29.6121 12.4593C29.7221 12.4593 29.8921 12.6193 29.8921 12.7393C30.3527 13.554 30.7248 14.4155 31.0021 15.3093C31.1221 15.8693 31.1721 16.3693 31.2821 16.9293C31.4265 17.5641 31.3561 18.2289 31.0821 18.8193C30.8621 19.2693 30.7421 19.7693 30.5221 20.2193C30.5221 20.4993 30.3521 20.7793 30.3021 21.0593C29.9702 22.2018 29.5626 23.321 29.0821 24.4093C29.0728 24.4454 29.0728 24.4833 29.0821 24.5193C29.0821 24.5193 29.0821 24.5793 28.9621 24.6893C28.9075 25.1386 28.7756 25.5751 28.5721 25.9793C28.6821 25.9193 28.8021 25.9193 28.8521 25.8693C29.4121 25.2493 30.0321 24.5193 30.5921 23.8693C31.5921 22.7493 32.4921 21.6393 33.4421 20.5193C33.8251 20.1147 34.1793 19.6836 34.5021 19.2293C35.5682 17.8346 36.7099 16.4992 37.9221 15.2293C38.0935 15.0403 38.3008 14.8873 38.5321 14.7793C38.9695 14.5783 39.454 14.5021 39.9321 14.5593C40.1113 14.6282 40.2797 14.7225 40.4321 14.8393C40.8821 15.2893 41.2721 15.8393 41.7221 16.1793C42.0132 16.4505 42.2242 16.7964 42.3321 17.1793C42.464 17.5591 42.5578 17.951 42.6121 18.3493C42.756 18.9204 42.756 19.5183 42.6121 20.0893C42.2684 21.3241 41.8578 22.5392 41.3821 23.7293C41.2721 24.2293 41.0421 24.7293 40.9321 25.3493C41.0766 25.3005 41.2094 25.2222 41.3221 25.1193C42.4721 24.4466 43.5111 23.5999 44.4021 22.6093C45.2608 21.7678 46.2177 21.0325 47.2521 20.4193C47.4284 20.3507 47.5836 20.2369 47.7021 20.0893C47.7546 20.0298 47.8192 19.982 47.8917 19.9493C47.9641 19.9166 48.0426 19.8997 48.1221 19.8997C48.2015 19.8997 48.2801 19.9166 48.3525 19.9493C48.4249 19.982 48.4895 20.0298 48.5421 20.0893C48.8221 20.3093 48.9321 20.6993 49.3221 20.8693C49.7121 21.0393 49.7721 21.2593 49.9921 21.5393C49.942 22.0047 49.942 22.474 49.9921 22.9393C49.9751 23.3631 49.8802 23.78 49.7121 24.1693C49.3821 24.3393 49.6021 24.7893 49.3821 25.0693C49.3221 25.7393 49.2121 26.4093 49.1021 27.0693C49.042 27.6645 49.042 28.2642 49.1021 28.8593C49.1021 29.2493 49.2121 29.4193 49.4921 29.5293C50.3321 29.6993 53.2421 27.6293 53.8021 26.8993C54.7759 25.706 55.63 24.4198 56.3521 23.0593C56.3892 22.7892 56.5038 22.5356 56.6821 22.3293C56.7921 22.4993 56.8521 22.4993 56.7921 22.5593C56.6321 23.3993 56.9121 22.8893 56.7921 23.8393C56.7921 23.6193 56.5121 24.7893 56.3521 24.6793C56.1921 24.5693 56.2321 24.8493 56.1221 24.9593C55.7921 25.5793 55.4521 26.1393 55.1221 26.8093C55.1221 27.0293 54.9521 27.1993 54.9021 27.3093C54.4536 27.6381 54.0412 28.0135 53.6721 28.4293C53.6721 28.5993 53.5021 28.6493 53.3921 28.7093C52.5515 29.7613 51.4474 30.5721 50.1921 31.0593C49.5447 31.0569 48.9024 30.9453 48.2921 30.7293C47.5756 30.2207 46.9671 29.5749 46.5021 28.8293C46.23 28.0728 46.209 27.2488 46.4421 26.4793C46.7061 25.0884 47.0806 23.7207 47.5621 22.3893C47.6306 22.2099 47.6711 22.0211 47.6821 21.8293C47.7321 21.7193 47.6821 21.6693 47.6821 21.4993C47.3421 21.4993 47.1221 21.9493 46.8421 21.9993C46.563 22.0947 46.2975 22.2258 46.0521 22.3893C46.0625 22.7826 45.9231 23.1651 45.6621 23.4593C45.4421 23.6793 45.3321 23.9593 45.1021 24.2393C44.8221 24.0693 44.5421 24.2393 44.2621 24.4593C43.8221 24.8493 43.4221 25.1893 42.9221 25.5793C42.8121 25.6893 42.6421 25.7493 42.5321 25.9693C42.0045 26.5666 41.403 27.0942 40.7421 27.5393C40.6821 27.6493 40.5721 27.6493 40.4621 27.8193C40.1221 28.4893 39.4621 28.8193 38.9521 29.3893C38.7777 29.6227 38.5908 29.8464 38.3921 30.0593C38.0011 30.3914 37.5473 30.6414 37.0576 30.7943C36.568 30.9472 36.0525 30.9999 35.5421 30.9493C35.0697 30.8663 34.6472 30.605 34.3621 30.2193C34.1581 29.9968 34.0071 29.7309 33.9205 29.4417C33.8339 29.1525 33.8139 28.8474 33.8621 28.5493C33.8638 27.9377 33.9756 27.3314 34.1921 26.7593C35.0956 24.0123 36.4069 21.4166 38.0821 19.0593C38.4721 18.3293 38.9821 17.6593 39.3721 16.8793C39.4942 16.7808 39.5856 16.6493 39.6352 16.5004C39.6848 16.3515 39.6907 16.1915 39.6521 16.0393C39.4821 15.8693 39.2621 15.8693 39.0321 16.0393C38.892 16.2165 38.7229 16.3686 38.5321 16.4893C37.9999 17.0417 37.4391 17.5657 36.8521 18.0593C36.5122 18.4251 36.2291 18.8397 36.0121 19.2893C35.7611 19.9228 35.4025 20.5081 34.9521 21.0193C34.4649 21.4709 34.0319 21.9776 33.6621 22.5293C33.3321 22.9793 33.1021 23.5293 32.8221 23.9293C32.6814 24.2751 32.5143 24.6094 32.3221 24.9293C32.2121 25.0993 32.0421 25.3193 31.9321 25.4893C31.8421 25.5293 31.7321 25.4193 31.6821 25.4193Z" fill="#FC8156"/>
  <path d="M56.5721 17.9793L56.6321 17.9193C56.7496 17.7597 56.8995 17.6267 57.0721 17.5293C57.6921 17.4193 59.0721 16.4093 59.6521 16.7493C59.8121 16.9693 60.3721 17.2493 60.6521 17.4793C60.7727 17.6584 60.8461 17.8651 60.8653 18.0802C60.8845 18.2952 60.849 18.5117 60.7621 18.7093C60.4221 19.4293 60.0321 20.1093 59.5821 20.9993C59.4721 21.3393 59.3621 21.6193 59.3121 21.8393C59.0821 22.3393 58.8621 23.0093 58.5821 23.5193C58.3521 24.1893 59.3621 22.0593 59.2521 22.6193C59.2314 22.7775 59.1731 22.9283 59.0821 23.0593C58.745 23.6351 58.572 24.2922 58.5821 24.9593C58.5821 25.5193 58.3521 28.3693 58.4121 28.8793C58.483 29.195 58.6386 29.4854 58.8621 29.7193C59.1286 29.8905 59.4097 30.0378 59.7021 30.1593C59.9821 30.3893 60.2621 30.2793 60.5921 30.2193C65.2321 28.5393 63.5921 27.9293 66.2421 25.0693C66.8295 24.3867 67.3023 23.6133 67.6421 22.7793C67.6421 22.7193 67.6422 22.7193 67.8121 22.4393C68.0921 22.9993 67.4721 23.7893 68.2621 23.9593C67.0821 26.0793 66.2621 29.1593 64.3421 30.2793C63.7821 30.9993 59.9821 34.3593 57.5121 33.4093C56.7321 33.6893 56.0021 32.9093 55.1621 32.5693C54.539 32.2822 53.9861 31.8624 53.5421 31.3393C53.2251 30.6314 53.0355 29.8731 52.9821 29.0993C52.8949 28.7735 52.8578 28.4363 52.8721 28.0993C53.0421 27.4293 52.9321 26.0993 53.1521 25.6993C53.2431 25.4068 53.3001 25.1049 53.3221 24.7993C53.4321 24.7993 53.3221 24.4693 53.7121 24.4093C53.7721 24.4093 53.8221 24.1893 53.8821 24.1293C54.1621 23.7393 54.2121 23.4093 54.4921 23.0093C54.4921 23.0093 53.3221 24.1893 53.9921 23.0693C54.4421 21.9493 55.4421 20.7193 55.7821 19.9393C55.7984 19.8392 55.8359 19.7437 55.8921 19.6593C56.0621 19.3193 56.2321 19.0993 56.1221 18.7093C56.0765 18.4353 56.1335 18.154 56.2821 17.9193C56.3521 17.9793 56.4021 18.0593 56.5721 17.9793ZM61.7221 11.8793C61.5928 12.0231 61.4971 12.1939 61.4421 12.3793C61.4453 12.4321 61.4361 12.4849 61.4153 12.5335C61.3944 12.5821 61.3625 12.6252 61.3221 12.6593C61.1621 12.8293 60.9921 13.0593 60.7721 13.3393C60.5374 13.5597 60.2469 13.7118 59.9321 13.7793C59.8121 13.7793 59.6521 13.8393 59.5321 13.9493C59.4235 14.0371 59.2907 14.0898 59.1515 14.1006C59.0122 14.1113 58.8729 14.0795 58.7521 14.0093C58.6225 13.9142 58.4619 13.8714 58.3021 13.8893C58.0996 13.9141 57.8947 13.9141 57.6921 13.8893C57.7432 13.8118 57.8 13.7383 57.8621 13.6693C57.8988 13.4783 57.9523 13.2909 58.0221 13.1093C58.136 12.8558 58.2698 12.6117 58.4221 12.3793C58.4221 12.2693 58.5821 12.1493 58.5821 12.0993C58.5821 11.7593 58.8621 11.4793 59.0321 11.1493L59.3721 10.6393C59.4821 10.5293 59.5921 10.4193 59.7021 10.4193C59.7429 10.39 59.7919 10.3743 59.8421 10.3743C59.8924 10.3743 59.9413 10.39 59.9821 10.4193C59.9821 10.5293 60.0921 10.5293 60.2121 10.4793C60.3321 10.4293 60.3721 10.3593 60.4321 10.4193C60.6659 10.5213 60.911 10.5952 61.1621 10.6393C61.5451 10.8109 61.8587 11.107 62.0521 11.4793C61.8821 11.5993 61.8321 11.7693 61.7221 11.8793Z" fill="#FC8156"/>
  <path d="M83.2521 25.3593C82.9721 25.9193 82.0221 27.1493 82.0221 27.7693C81.9252 27.8771 81.8142 27.9713 81.6921 28.0493C81.4981 28.2398 81.345 28.4677 81.2421 28.7193C81.1235 28.9329 80.9933 29.1399 80.8521 29.3393C80.1997 30.6191 79.3263 31.7736 78.2721 32.7493C77.9421 33.0293 74.9721 35.8793 74.7521 36.1593C73.1321 37.4993 70.9521 36.8893 69.3221 36.9393C68.9199 36.9646 68.5177 36.889 68.1521 36.7193C67.4176 36.4316 66.7403 36.0151 66.1521 35.4893C65.6521 34.2593 64.3621 33.4193 64.2521 31.6893C64.1921 31.2393 63.9721 30.9593 63.9121 30.5093C63.9721 28.7193 64.2521 26.9293 64.4721 25.0793C64.8121 23.7993 65.0921 22.3993 65.3121 21.0793C65.6492 19.3752 66.2533 17.735 67.1021 16.2193C67.6621 14.7593 68.1721 14.6493 68.7221 13.2193C69.1319 12.4503 69.586 11.7057 70.0821 10.9893C70.4876 10.1328 70.9555 9.30721 71.4821 8.51933C72.463 6.79626 73.6264 5.18366 74.9521 3.70933C75.7921 2.86933 76.6821 1.97933 77.5221 1.24933C77.974 0.84411 78.4827 0.507206 79.0321 0.249329C79.1924 0.155214 79.3637 0.0813204 79.5421 0.0293318C79.9115 -0.0272887 80.2889 -0.00103094 80.6469 0.106202C81.0049 0.213435 81.3346 0.398956 81.6121 0.649331C81.8997 0.959787 82.1023 1.33919 82.2004 1.75086C82.2985 2.16252 82.2888 2.59254 82.1721 2.99933C82.0521 3.66933 82.0021 4.33933 81.8321 4.94933C81.7373 5.48213 81.5477 5.99358 81.2721 6.45933C80.8887 7.42528 80.4025 8.34724 79.8221 9.20933C79.4221 9.92933 78.9821 10.6593 78.5821 11.3893C77.9121 12.3893 77.3521 13.4593 76.6821 14.3893C75.5121 15.9493 74.5021 17.6293 73.4421 19.1993C71.7021 22.1993 71.8721 22.6693 71.2621 25.6293C71.1173 26.6224 71.0604 27.6263 71.0921 28.6293C71.0921 28.9693 71.3121 31.1493 71.3721 31.3793C71.5116 32.0041 71.7371 32.6065 72.0421 33.1693C72.1521 33.3893 72.9321 33.5593 73.2121 33.6693C73.6121 33.9493 76.5721 31.9293 76.9621 31.6693C77.8533 31.0654 78.6632 30.3495 79.3721 29.5393C80.1402 28.7046 80.8112 27.7853 81.3721 26.7993C82.3721 25.4593 82.7121 24.3393 83.7721 22.8793C84.4821 22.7893 84.0821 23.9693 83.2521 25.3593ZM74.3021 15.2893C75.6423 13.2299 76.8772 11.1038 78.0021 8.91933C78.6121 7.73933 79.1121 6.56933 79.7321 5.38933C79.9994 4.5693 80.1869 3.72539 80.2921 2.86933C80.4021 2.58933 80.4021 2.42933 80.1221 2.53933C79.8996 2.58331 79.6905 2.67925 79.5121 2.81933C78.7213 3.14573 78.0532 3.71244 77.6021 4.43933C77.2121 4.88933 76.9321 5.43933 76.4821 5.83933C76.0121 6.42844 75.6714 7.10988 75.4821 7.83933C75.2021 8.39933 74.9221 9.06933 74.6421 9.62933C74.2111 10.8324 73.7068 12.0079 73.1321 13.1493C72.9021 13.7093 72.7421 14.3293 72.5121 14.8893C71.8421 16.7893 72.1221 15.8393 71.5121 17.7393C71.3421 18.1893 71.4521 19.4693 72.1821 18.7393C72.9474 17.6264 73.655 16.4749 74.3021 15.2893Z" fill="#FC8156"/>
  <path d="M86.0821 22.8493C86.0711 22.9104 86.0453 22.9679 86.0069 23.0167C85.9686 23.0655 85.9189 23.1042 85.8621 23.1293C85.8119 23.1571 85.7697 23.1976 85.7399 23.2467C85.7101 23.2958 85.6936 23.3519 85.6921 23.4093C85.6321 23.6293 85.5821 23.6893 85.4121 23.7393C85.2421 23.7893 85.3021 23.8493 85.2421 24.1893C85.3521 24.1893 85.4121 24.1893 85.4621 24.2393V24.2993H85.0821C85.1283 24.154 85.1487 24.0017 85.1421 23.8493H85.0321C84.9721 24.2393 84.9221 24.6393 84.8621 25.0293C84.9721 25.0293 85.0321 25.1393 85.0821 25.1393C85.112 25.512 85.112 25.8866 85.0821 26.2593C85.092 26.6035 85.1666 26.9428 85.3021 27.2593C85.4721 27.4793 85.9221 28.7093 86.0921 28.9293C86.8721 29.7193 87.8221 30.7193 88.7221 30.7793C89.4552 30.7452 90.1842 30.6515 90.9021 30.4993C92.3065 30.0558 93.6156 29.3538 94.7621 28.4293C95.7621 27.6993 96.6021 26.8593 97.5521 26.0793C97.6136 26.0277 97.6705 25.9708 97.7221 25.9093C98.0621 25.5193 98.3921 25.1893 98.7221 24.7893C99.3369 24.1886 99.899 23.5362 100.402 22.8393C100.535 22.5386 100.773 22.2968 101.072 22.1593C100.987 22.6445 100.836 23.1156 100.622 23.5593C100.565 23.7291 100.469 23.8832 100.342 24.0093C100.015 24.3673 99.7334 24.7635 99.5021 25.1893C99.3321 25.4093 99.1121 25.6293 98.9421 25.8593C98.9421 25.8593 98.8321 26.0293 98.7221 26.1893C98.8921 26.1893 99.0021 26.0793 99.1721 26.0293C99.1121 26.3593 98.8321 26.4193 98.7821 26.6993C98.8321 26.6993 98.8321 26.8093 98.9421 26.8593C98.7899 27.1123 98.6012 27.3414 98.3821 27.5393C98.019 27.8415 97.6843 28.1762 97.3821 28.5393C96.8837 29.0672 96.3418 29.5523 95.7621 29.9893C95.5145 30.2111 95.2541 30.4181 94.9821 30.6093C94.7521 30.7693 94.5321 30.8893 94.3121 31.0493C93.9674 31.2149 93.6334 31.402 93.3121 31.6093C92.7641 31.9581 92.1578 32.2054 91.5221 32.3393L91.0221 32.5093C90.3721 32.7136 89.7012 32.8444 89.0221 32.8993C87.3932 32.8343 85.7781 32.5723 84.2121 32.1193C82.2121 31.3293 81.8621 30.3793 80.9721 29.5993C80.6147 29.2778 80.3432 28.8722 80.1821 28.4193C79.9365 27.663 79.8051 26.8744 79.7921 26.0793C79.8118 24.346 80.2148 22.6385 80.9721 21.0793C81.0467 20.9542 81.0949 20.8151 81.1138 20.6707C81.1327 20.5262 81.1219 20.3794 81.0821 20.2393C80.9506 20.2951 80.8326 20.3784 80.736 20.4836C80.6394 20.5888 80.5665 20.7135 80.5221 20.8493C80.3447 21.3558 80.1204 21.8446 79.8521 22.3093C79.8857 21.8747 80.0191 21.4538 80.2421 21.0793C80.6763 20.0816 81.1983 19.1245 81.8021 18.2193C82.4002 17.2925 83.094 16.4311 83.8721 15.6493C84.6188 14.8358 85.4656 14.1201 86.3921 13.5193C86.5864 13.4422 86.7738 13.3485 86.9521 13.2393C87.2321 13.1293 87.5121 13.0793 87.6821 13.3593C87.8521 13.6393 88.0721 13.4693 88.1821 13.5793C88.2921 13.6893 88.4121 13.9093 88.5221 14.0293C89.0821 14.3093 91.2021 14.8693 91.7121 15.1993C91.8831 15.3538 92.0165 15.5453 92.1021 15.7593C92.3187 16.2723 92.6196 16.7455 92.9921 17.1593C93.0984 17.3107 93.1763 17.4801 93.2221 17.6593C93.3544 18.3194 93.3544 18.9992 93.2221 19.6593C93.0805 20.432 92.7956 21.1714 92.3821 21.8393C92.1421 22.2107 91.9346 22.6021 91.7621 23.0093C91.6263 23.406 91.438 23.7827 91.2021 24.1293C91.1039 24.3318 90.964 24.5112 90.7917 24.656C90.6194 24.8007 90.4185 24.9075 90.2021 24.9693C89.8722 25.1371 89.4978 25.1966 89.1321 25.1393C88.9721 25.0793 88.8021 25.1393 88.6921 24.9193C88.6921 24.9114 88.6906 24.9036 88.6875 24.8963C88.6845 24.8891 88.6801 24.8825 88.6745 24.8769C88.669 24.8713 88.6624 24.8669 88.6551 24.8639C88.6478 24.8609 88.64 24.8593 88.6321 24.8593C88.1821 24.9193 87.9021 24.4093 87.5721 24.2393C87.5078 24.1622 87.4662 24.0687 87.4521 23.9693C87.5721 23.7393 87.4521 23.6293 87.4521 23.4593C87.2325 22.9806 86.9889 22.5134 86.7221 22.0593C86.7221 21.8993 86.5021 21.8393 86.3321 22.0593C86.1621 22.2793 86.0821 22.5093 86.0821 22.8493ZM80.7721 27.8493C80.8221 28.0193 80.8821 28.1293 80.9321 28.2993C80.9821 28.4693 81.1021 28.5793 80.9921 28.7993C80.9321 28.7993 80.8821 28.7993 80.8821 28.6893C80.6195 28.0497 80.4478 27.3765 80.3721 26.6893C80.3721 26.6293 80.3721 26.5693 80.3721 26.5193C80.3344 25.6926 80.4118 24.8647 80.6021 24.0593C80.6624 23.8953 80.6995 23.7236 80.7121 23.5493V23.1593C80.5722 23.4104 80.4583 23.6751 80.3721 23.9493C80.3721 24.2193 80.2621 24.4493 80.2121 24.7293C79.9175 26.0749 80.0721 27.4799 80.6521 28.7293C80.7879 28.9459 80.9383 29.1531 81.1021 29.3493C81.2123 29.4533 81.3461 29.5288 81.4921 29.5693C81.4921 29.6293 81.5521 29.5693 81.6621 29.5693C81.4899 29.3228 81.3393 29.0618 81.2121 28.7893C81.0521 28.4493 81.0521 28.1093 80.8821 27.7893C80.8533 27.7919 80.8255 27.8015 80.8011 27.8172C80.7767 27.8328 80.7565 27.8541 80.7421 27.8793L80.7721 27.8493ZM80.7721 24.2693C80.5395 25.1061 80.4985 25.9845 80.6521 26.8393C80.6521 26.8993 80.7121 26.8993 80.7721 26.9593C80.8221 26.3393 80.8821 25.7793 80.9321 25.2193C81.0478 24.8549 81.0478 24.4637 80.9321 24.0993C80.7921 24.1893 80.7421 24.2393 80.7421 24.2993L80.7721 24.2693ZM87.8421 19.7993C87.6986 19.9937 87.5683 20.1975 87.4521 20.4093C87.2321 20.7993 87.2921 21.0793 87.5621 21.2493C87.756 21.3447 87.9293 21.4772 88.0721 21.6393C88.2327 21.7927 88.4319 21.8997 88.6485 21.949C88.865 21.9983 89.0909 21.988 89.3021 21.9193C89.7006 21.7457 90.0185 21.4278 90.1921 21.0293C90.5921 20.0293 90.8121 19.9093 91.1921 18.9593C92.0821 16.8293 90.2921 17.3293 89.4521 17.9593C88.8175 18.5084 88.2562 19.1369 87.7821 19.8293L87.8421 19.7993Z" fill="#FC8156"/>
</svg>