<svg width="188" height="38" viewBox="0 0 188 38" fill="none" xmlns="http://www.w3.org/2000/svg">
  <path d="M149.524 22.8935H136.055L137.455 21.8406C138.061 21.0453 138.571 20.1819 138.975 19.268L142.621 11.4409C142.869 10.9145 142.919 10.547 142.77 10.3682C142.621 10.1894 142.164 10.1 141.389 10.1H137.356C136.843 10.0778 136.33 10.1554 135.846 10.3284C135.414 10.5781 135.084 10.972 134.913 11.4409L131.267 19.268C130.919 19.9356 130.652 20.6426 130.473 21.3738C130.446 21.9004 130.559 22.4249 130.8 22.8935H117.361L118.355 22.3472C119.162 21.4453 119.802 20.4058 120.242 19.2779L124.215 10.6662C124.545 10.0363 124.798 9.36944 124.97 8.67959C125.001 8.11742 124.899 7.55579 124.672 7.04067H136.055L135.608 8.69946C136.109 8.25252 136.651 7.85345 137.227 7.5075C137.904 7.19086 138.645 7.03129 139.392 7.04067H148.332C153.206 7.04067 154.742 8.97427 152.941 12.8415L149.961 19.3077C149.624 19.9686 149.36 20.6649 149.176 21.3837C149.138 21.9199 149.259 22.4555 149.524 22.9233" fill="#CF4044"/>
  <path d="M150.408 23.4496H134.386L136.055 22.1981L137.048 21.4432C137.608 20.6981 138.081 19.8916 138.459 19.0395L142.104 11.2024C142.182 11.0521 142.239 10.8916 142.273 10.7257C141.979 10.6688 141.679 10.6455 141.379 10.6561H137.346C136.912 10.6341 136.477 10.6947 136.065 10.8349C135.936 10.8945 135.688 11.0733 135.409 11.6792L131.764 19.5063C131.434 20.1358 131.18 20.8028 131.009 21.4929C130.994 21.9154 131.094 22.3341 131.297 22.7047L131.655 23.4894H117.352L117.093 22.4961L117.471 22.2974L118.067 21.9796C118.79 21.1289 119.371 20.1661 119.785 19.1289L123.758 10.5171C124.075 9.93116 124.316 9.30687 124.473 8.65962C124.492 8.19124 124.4 7.72501 124.205 7.29882L123.927 6.54393H136.84L136.631 7.31869L137.019 7.0803C137.778 6.71641 138.61 6.53285 139.452 6.54393H148.392C151.223 6.54393 152.991 7.1697 153.805 8.45104C154.62 9.73238 154.421 11.1528 153.497 13.1393L150.517 19.6056C150.195 20.2194 149.949 20.8697 149.782 21.5425C149.767 21.9644 149.874 22.3817 150.09 22.7444L150.408 23.4496ZM137.714 22.3372H148.719C148.614 21.9934 148.583 21.6309 148.63 21.2743C148.813 20.5018 149.09 19.7546 149.455 19.0494L152.434 12.5732C153.189 10.964 153.318 9.75224 152.812 8.95761C152.305 8.16298 150.716 7.56701 148.332 7.56701H139.393C138.73 7.55359 138.073 7.69651 137.475 7.98419C136.938 8.30556 136.432 8.67811 135.966 9.09667L134.595 10.2787L135.33 7.56701H125.397C125.501 7.94842 125.532 8.34627 125.487 8.73908C125.313 9.49132 125.046 10.2188 124.692 10.9045L120.719 19.5162C120.286 20.516 119.739 21.4626 119.09 22.3372H130.016C129.911 22.0002 129.88 21.6442 129.927 21.2942C130.105 20.5094 130.385 19.7513 130.761 19.0395L134.416 11.2024C134.636 10.6088 135.068 10.1172 135.628 9.82176C136.179 9.61237 136.767 9.51773 137.356 9.54364H141.389C142.382 9.54364 142.929 9.6827 143.197 10.0105C143.604 10.5071 143.346 11.2024 143.117 11.6792L139.472 19.5063C139.052 20.4609 138.518 21.3614 137.883 22.1882L137.793 22.2776L137.714 22.3372Z" fill="#231F20"/>
  <path d="M166.072 13.5864L167.066 11.421C167.237 10.9687 167.56 10.5896 167.979 10.3482C168.393 10.17 168.841 10.0852 169.291 10.0999H173.82C174.893 10.0999 175.23 10.537 174.813 11.421L173.82 13.5864H166.072ZM185.372 11.8084C186.206 10.0105 186.306 8.76893 185.68 8.0637C185.054 7.35846 183.574 7.0108 181.26 7.0108H164.463C162.59 6.90205 160.721 7.27119 159.03 8.08355C157.637 8.97524 156.554 10.2765 155.931 11.8084L152.951 18.1058C152.117 19.8937 152.007 21.1453 152.623 21.8406C153.239 22.5359 154.699 22.8934 157.014 22.8934H179.084L181.647 19.0991C180.889 19.3855 180.103 19.5952 179.303 19.7249C178.757 19.7845 177.783 19.8043 176.323 19.8043H165.675C163.986 19.8043 163.381 19.268 163.887 18.2051L164.572 16.7252H183.038L185.372 11.8084Z" fill="#CF4044"/>
  <path d="M179.382 23.4496H157.053C154.55 23.4496 152.981 23.0424 152.246 22.208C151.511 21.3736 151.541 19.8936 152.494 17.8673L155.474 11.5699C156.145 9.93291 157.308 8.54462 158.801 7.59677C160.577 6.73485 162.543 6.3416 164.513 6.45448H181.309C183.812 6.45448 185.392 6.86173 186.147 7.68616C186.902 8.51059 186.872 10.0105 185.928 12.0368L183.485 17.2813H164.97L164.423 18.4335C164.326 18.587 164.294 18.7728 164.334 18.95C164.334 18.95 164.563 19.248 165.715 19.248H176.363C177.753 19.248 178.727 19.248 179.243 19.1685C180.004 19.0476 180.749 18.8479 181.468 18.5726L183.028 18.0461L179.382 23.4496ZM164.483 7.55703C162.709 7.45436 160.937 7.79576 159.328 8.55031C158.035 9.38533 157.033 10.5996 156.457 12.0268L153.477 18.3243C152.762 19.8738 152.613 20.9565 153.06 21.463C153.507 21.9696 154.371 22.3272 157.033 22.3272H178.776L180.286 20.0824C179.976 20.1609 179.66 20.2206 179.343 20.2612C178.776 20.3208 177.793 20.3506 176.363 20.3506H165.675C164.463 20.3506 163.688 20.0824 163.361 19.5361C163.221 19.2963 163.148 19.0238 163.148 18.7464C163.148 18.469 163.221 18.1965 163.361 17.9567L164.195 16.1589H182.66L184.806 11.56C185.521 10.0204 185.66 8.9377 185.203 8.4212C184.746 7.90469 183.872 7.55703 181.23 7.55703H164.483ZM174.207 14.1326H165.268L166.648 11.1527C166.87 10.5846 167.285 10.1131 167.821 9.82172C168.314 9.60158 168.85 9.49629 169.39 9.5138H173.909C174.199 9.47357 174.494 9.50917 174.765 9.61712C175.037 9.72507 175.276 9.90167 175.459 10.1296C175.589 10.3565 175.657 10.6133 175.657 10.8746C175.657 11.136 175.589 11.3928 175.459 11.6196L174.207 14.1326ZM166.946 13.04H173.482L174.346 11.1925C174.424 11.0639 174.462 10.9154 174.456 10.7654C174.264 10.6757 174.05 10.6413 173.84 10.666H169.32C168.949 10.6483 168.579 10.7163 168.238 10.8647C167.936 11.0463 167.708 11.3273 167.592 11.6593L166.946 13.04Z" fill="#231F20"/>
  <path d="M120.123 12.9504C121.454 9.81166 122.268 7.07019 115.613 6.99073H82.7356L84.3348 3.55396H73.2597L71.6704 6.96093H48.5467C48.5467 6.96093 42.2592 6.69275 39.8257 11.8181L36.8458 18.2745C35.5545 21.1451 37.1736 22.8535 41.0077 22.8535H58.6782L61.2111 19.0095C59.7594 19.4904 58.2408 19.7384 56.7115 19.7445H49.6592C49.6592 19.7445 46.9177 19.9531 47.9011 18.046L50.8809 11.6691C50.8809 11.6691 51.4074 10.0699 54.0098 10.0401H70.2699L66.2967 18.6916C65.661 20.4597 65.4822 22.8634 71.0248 22.8535H84.752L87.1657 19.1585C86.0113 19.5539 84.8001 19.7585 83.5799 19.7644H78.7923C77.4513 19.7644 76.8057 19.7644 77.3222 18.7115L81.3649 10.06H108.839C111.024 10.06 110.041 12.1161 107.846 12.126H97.1879C94.814 12.126 91.5262 12.3942 89.4701 15.9899C89.4701 15.9899 88.3079 18.3837 88.1291 18.8506C86.9869 21.8304 88.3278 22.8237 92.3506 22.8237H101.171C103.644 22.8237 105.035 22.0688 105.83 21.1053L105.581 22.8237H116.597C116.299 22.3966 115.911 22.039 116.478 20.7477L120.123 12.8809V12.9504ZM106.952 17.4898C106.688 18.1877 106.282 18.8235 105.76 19.3571C105.291 19.6481 104.741 19.7804 104.191 19.7346H101.002C100.409 19.8049 99.8088 19.7014 99.2738 19.4366C99.0454 19.2379 99.0454 18.8903 99.2738 18.3738L100.148 16.5064C100.555 15.6224 101.548 15.1853 103.128 15.1853H108.064L106.952 17.4898Z" fill="#CF4044"/>
  <path d="M70.9153 23.4597C68.2633 23.4597 66.6045 22.9333 65.8297 21.8307C65.5529 21.3345 65.397 20.78 65.3745 20.2122C65.3521 19.6444 65.4638 19.0793 65.7006 18.5628V18.5131L69.3261 10.6563H53.9699C51.8443 10.6563 51.3774 11.8681 51.3576 11.9177V11.9674L48.3777 18.3443C48.2287 18.6323 48.189 18.8509 48.2486 18.9502C48.3082 19.0495 49.1425 19.278 49.5895 19.2482H56.6319C58.0965 19.2449 59.5514 19.0102 60.9428 18.5529L62.5419 17.9668L58.9065 23.4696H40.9777C38.6435 23.4696 37.0046 22.8538 36.2695 21.6917C35.9538 21.1469 35.7876 20.5284 35.7876 19.8988C35.7876 19.2691 35.9538 18.6507 36.2695 18.1059L39.2494 11.6396C41.822 6.24606 48.189 6.45466 48.4969 6.4646H71.2431L72.8423 3.05762H85.1392L83.54 6.50432H115.613C118.593 6.50432 120.391 7.09036 121.166 8.26244C122.04 9.60338 121.414 11.3714 120.629 13.2289L117.004 21.046C116.616 21.94 116.765 22.1486 117.004 22.4664L117.689 23.4597H104.975L105.104 22.5459C103.91 23.1905 102.567 23.5059 101.211 23.4597H92.3803C89.7679 23.4597 88.2879 23.0127 87.6125 22.0194C87.2416 21.4281 87.1168 20.715 87.2648 20.0329L85.0101 23.4895H70.9153V23.4597ZM66.7336 18.9999C66.5527 19.3428 66.4581 19.7246 66.4581 20.1123C66.4581 20.5 66.5527 20.8819 66.7336 21.2248C67.27 21.9897 68.7202 22.3969 70.9153 22.3969H84.3346L85.7948 20.1819C85.0297 20.3373 84.2512 20.4171 83.4705 20.4202H78.504C77.5704 20.4202 76.9446 20.4203 76.6267 19.9038C76.5292 19.6943 76.4854 19.4638 76.4992 19.2332C76.5131 19.0025 76.5842 18.7789 76.7062 18.5827L80.8979 9.64311H108.71C110.031 9.64311 110.488 10.2987 110.488 10.9046C110.488 11.8283 109.356 12.8117 107.677 12.8216H97.1878C94.496 12.8216 91.7545 13.2487 89.9566 16.3975C89.6487 17.0332 88.7945 18.831 88.6455 19.1886C88.2283 20.2713 88.1787 21.0162 88.4965 21.4831C88.9336 22.1287 90.195 22.4764 92.3504 22.4764H101.171C103.157 22.4764 104.578 21.9599 105.402 20.9566L106.654 19.4468L106.227 22.4764H115.683C115.582 21.8778 115.683 21.2627 115.971 20.7282L119.606 12.8713C120.272 11.3118 120.808 9.89142 120.232 8.96766C119.656 8.04391 118.146 7.736 115.603 7.71613H81.8316L83.4307 4.27935H73.5873L71.998 7.68633H48.5168C48.4373 7.68633 42.557 7.4976 40.2923 12.2256L37.3125 18.682C37.0809 19.0563 36.9485 19.4834 36.9276 19.9231C36.9068 20.3627 36.9982 20.8005 37.1933 21.195C37.7197 22.0195 39.0607 22.4664 40.9678 22.4664H58.3999L59.9495 20.1123C58.8917 20.3408 57.8134 20.4606 56.7312 20.4699H49.6988C49.361 20.4699 47.9307 20.5395 47.3645 19.6852C47.2118 19.424 47.1363 19.1248 47.1469 18.8224C47.1574 18.5199 47.2536 18.2267 47.4241 17.9768L50.404 11.6396C50.5232 11.3416 51.2781 9.65303 54.0494 9.65303H71.1835L66.7336 18.9999ZM77.6598 19.2581C77.9906 19.2758 78.3222 19.2758 78.653 19.2581H83.54C84.6922 19.2532 85.836 19.062 86.9271 18.6919L87.7813 18.3741C88.129 17.5993 88.9038 16.0001 89.0031 15.7915C91.1088 12.1065 94.337 11.6198 97.2176 11.6198H107.766C108.055 11.6367 108.344 11.5944 108.616 11.4953C108.887 11.3962 109.136 11.2425 109.346 11.0436C109.455 10.9145 109.475 10.8251 109.465 10.8152C109.455 10.8052 109.276 10.6662 108.799 10.6563H81.6826L77.7492 18.9999L77.6598 19.2581ZM104.19 20.4004H101.002C100.275 20.4903 99.5395 20.3403 98.9061 19.9733C98.6082 19.715 98.34 19.1985 98.777 18.2549L99.6511 16.3776C100.158 15.2949 101.32 14.7387 103.128 14.7387H108.889L107.458 17.8278C107.161 18.6131 106.696 19.3247 106.098 19.9137C105.526 20.2636 104.858 20.4203 104.19 20.3607V20.4004ZM99.661 19.1389C100.094 19.2744 100.55 19.325 101.002 19.2879H104.19C104.619 19.3346 105.052 19.2405 105.422 19.0197C105.863 18.5403 106.201 17.9758 106.415 17.3609L107.111 15.8511H103.098C101.767 15.8511 100.932 16.1889 100.634 16.8444L99.7504 18.7217C99.6961 18.8405 99.6657 18.9687 99.661 19.0992V19.1389Z" fill="#231F20"/>
  <path d="M39.6864 2.75954C38.8918 1.78612 37.1999 1.29941 34.6107 1.29941H17.5262C15.2843 1.21051 13.0611 1.73968 11.0997 2.82908C9.2865 3.97763 7.86602 5.65103 7.02718 7.62665L2.86532 16.5662C1.79919 18.864 1.67668 20.5195 2.4978 21.5326C3.2825 22.4564 4.93135 22.9133 7.46423 22.9133H24.5388C26.807 23.005 29.058 22.4835 31.0548 21.4035C32.8698 20.2483 34.2902 18.568 35.1272 16.5861L39.299 7.64652C40.3519 5.38183 40.4811 3.75945 39.6864 2.77941V2.75954ZM25.84 15.8014C18.9565 20.152 11.4076 22.0194 8.95416 19.9732C6.50074 17.927 10.1064 12.7619 17.0097 8.42128C23.913 4.08062 31.4322 2.2033 33.8956 4.23954C36.3589 6.27578 32.7235 11.4508 25.84 15.8014Z" fill="#CF4044"/>
  <path d="M24.5388 23.4496H7.46421C4.73267 23.4496 2.97455 22.9331 2.0806 21.8703C1.18664 20.8075 1.19657 18.8209 2.35872 16.3277L6.53052 7.38818C7.416 5.31557 8.90856 3.55982 10.8116 2.35222C12.8606 1.21202 15.183 0.655461 17.5262 0.74309H34.6107C37.4018 0.74309 39.1997 1.28941 40.1234 2.41182C41.1167 3.5839 40.9677 5.39167 39.7957 7.86495L35.6338 16.8045C34.7459 18.8895 33.2462 20.656 31.3329 21.8703C29.2513 22.9977 26.9043 23.5433 24.5388 23.4496ZM17.5262 1.85558C15.3862 1.77152 13.2638 2.27292 11.3877 3.30577C9.67622 4.40177 8.33354 5.9867 7.53374 7.85502L3.37187 16.7946C2.37858 18.8706 2.25939 20.3406 2.93482 21.1551C3.61026 21.9696 5.11012 22.3371 7.46421 22.3371H24.5388C26.7057 22.4301 28.8575 21.9359 30.7667 20.9068C32.4852 19.803 33.8316 18.2074 34.6306 16.3277L38.7924 7.38818C39.7857 5.35194 39.9049 3.91168 39.2593 3.10712C38.6137 2.30255 37.0145 1.85558 34.6107 1.85558H17.5262ZM12.0433 21.3438C10.8208 21.4159 9.61081 21.0652 8.61642 20.3506C8.27028 20.0721 7.99843 19.7124 7.82512 19.3033C7.65181 18.8943 7.58242 18.4488 7.62313 18.0064C7.81186 15.2153 11.3678 11.2521 16.6918 7.89476C23.8633 3.36538 31.5911 1.54765 34.2035 3.77261C34.5488 4.04951 34.8202 4.40756 34.9935 4.81486C35.1669 5.22215 35.2367 5.66601 35.1967 6.10684C35.018 8.88804 31.462 12.8612 26.138 16.2185C21.0325 19.4963 15.6886 21.3438 12.0433 21.3438ZM30.8462 3.98121C27.6776 3.98121 22.5621 5.5804 17.3275 8.88805C11.5963 12.4937 8.90447 16.1291 8.76541 18.1355C8.73446 18.3992 8.77006 18.6664 8.86896 18.9128C8.96786 19.1592 9.12691 19.3769 9.33158 19.546C11.3182 21.2048 18.2712 19.9135 25.542 15.3345C31.2633 11.7189 33.9551 8.08348 34.0942 6.07705C34.1251 5.81336 34.0895 5.54612 33.9906 5.29974C33.8917 5.05335 33.7327 4.83568 33.528 4.66658C32.7362 4.14392 31.7917 3.90254 30.8462 3.98121Z" fill="#231F20"/>
  <path d="M70.1505 22.7345C67.4985 22.7345 65.8397 22.1981 65.0649 21.0956C64.7881 20.5993 64.6322 20.0448 64.6097 19.4771C64.5873 18.9093 64.699 18.3442 64.9358 17.8277L68.5712 9.96083H53.2051C51.0794 9.96083 50.6126 11.1726 50.5927 11.2223V11.272L47.6129 17.6489C47.4639 17.9468 47.4241 18.1654 47.4837 18.2647C47.5433 18.364 48.3678 18.5826 48.8247 18.5528H55.877C57.3418 18.5423 58.7961 18.3044 60.1879 17.8475L61.7771 17.2615L58.1516 22.7643H40.2129C37.8787 22.7643 36.2397 22.1484 35.5047 20.9863C35.1899 20.443 35.0241 19.8263 35.0241 19.1984C35.0241 18.5705 35.1899 17.9537 35.5047 17.4105L38.4846 10.9343C41.0572 5.54071 47.4241 5.7493 47.7321 5.75923H70.4783L72.0676 2.34232H84.3744L82.7752 5.78903H114.779C117.759 5.78903 119.557 6.37507 120.331 7.54715C121.205 8.88808 120.58 10.6561 119.795 12.5136L116.16 20.3804C115.762 21.2644 115.921 21.473 116.16 21.7909L116.378 22.0988L116.289 21.7313L116.626 21.5425L117.262 21.2148C117.989 20.3697 118.569 19.4097 118.98 18.374L122.954 9.76217C123.269 9.17426 123.503 8.54601 123.649 7.8948C123.679 7.42562 123.587 6.95667 123.381 6.53399L123.113 5.78903H136.025L135.817 6.55386C135.94 6.4689 136.07 6.39258 136.204 6.32541C136.961 5.95698 137.795 5.77317 138.638 5.78903H147.527C150.358 5.78903 152.126 6.40487 152.941 7.68621C153.666 8.81855 153.557 10.3979 152.633 12.3745L149.653 18.8408C149.335 19.4561 149.088 20.106 148.918 20.7777C148.908 21.1978 149.011 21.6129 149.216 21.9796L149.603 22.7742H133.612L135.201 21.5922C135.558 21.324 135.926 21.0558 136.293 20.7678C136.853 20.0226 137.326 19.2162 137.704 18.364L141.349 10.527C141.427 10.3767 141.484 10.2162 141.518 10.0502C141.224 9.9934 140.924 9.97007 140.624 9.9807H136.591C136.156 9.95471 135.72 10.019 135.31 10.1694C135.181 10.1694 134.933 10.3979 134.655 11.0038L131.009 18.8309C130.675 19.4587 130.421 20.1261 130.254 20.8174C130.239 21.238 130.343 21.6544 130.552 22.0193L130.9 22.804H104.18L104.31 21.8902C103.114 22.5402 101.766 22.8558 100.406 22.804H91.5856C88.9634 22.804 87.4933 22.357 86.8179 21.3638C86.4469 20.7724 86.3221 20.0594 86.4702 19.3772L84.2254 22.7146H70.2002L70.1505 22.7345ZM65.9688 18.225C65.7878 18.5696 65.6933 18.9531 65.6933 19.3424C65.6933 19.7317 65.7878 20.1152 65.9688 20.4599C66.5052 21.2148 67.9554 21.622 70.1505 21.622H83.5698L85.0299 19.407C84.2649 19.5624 83.4864 19.6422 82.7057 19.6454H77.8684C76.8751 19.6454 76.2294 19.6454 75.8818 19.1289C75.7815 18.9201 75.7362 18.6892 75.7501 18.458C75.764 18.2268 75.8367 18.003 75.9612 17.8078L80.1529 8.86822H107.965C109.276 8.86822 109.743 9.52379 109.743 10.1297C109.743 11.0535 108.611 12.0368 106.932 12.0467H96.4229C93.7311 12.0467 90.9897 12.4738 89.1918 15.6325C88.8839 16.2583 88.0197 18.0561 87.8807 18.4236C87.4635 19.4964 87.4138 20.2413 87.7317 20.7082C88.1687 21.3538 89.4302 21.7015 91.5856 21.7015H100.406C102.393 21.7015 103.803 21.185 104.637 20.1817L105.889 18.6719L105.462 21.7015H114.918C114.811 21.1062 114.913 20.4923 115.206 19.9632L118.841 12.0964C119.507 10.5469 120.043 9.11654 119.467 8.20272C118.891 7.2889 117.381 6.96111 114.838 6.94124H81.0667L82.6659 3.50447H72.8225L71.2332 6.91145H47.7519C47.6625 6.91145 41.7922 6.72271 39.5275 11.4508L36.5477 17.9071C36.3161 18.2833 36.1837 18.712 36.1629 19.1532C36.142 19.5945 36.2334 20.0338 36.4285 20.4301C36.9549 21.2446 38.2958 21.6915 40.203 21.6915H57.5755L59.1251 19.3374C58.0673 19.5659 56.9889 19.6857 55.9068 19.695H48.8743C48.5366 19.695 47.1063 19.7546 46.5401 18.9004C46.3874 18.6392 46.3119 18.34 46.3225 18.0375C46.333 17.7351 46.4292 17.4419 46.5997 17.1919L49.5796 10.8548C49.6888 10.5568 50.4537 8.86822 53.2249 8.86822H70.3194L65.9688 18.225ZM136.949 21.6021H147.955C147.848 21.2585 147.818 20.8959 147.865 20.5393C148.048 19.7668 148.325 19.0195 148.69 18.3144L151.669 11.8381C152.424 10.229 152.544 9.01721 152.047 8.23252C151.55 7.44782 149.951 6.83198 147.567 6.83198H138.677C138.011 6.81959 137.352 6.96242 136.75 7.24916C136.216 7.57111 135.714 7.94365 135.25 8.36164L133.89 9.54365L134.625 6.83198H124.692C124.796 7.21343 124.826 7.61123 124.781 8.00405C124.61 8.75675 124.343 9.48444 123.987 10.1694L120.013 18.7812C119.581 19.781 119.034 20.7276 118.384 21.6021H129.231C129.128 21.2648 129.094 20.91 129.132 20.5592C129.321 19.7763 129.605 19.0192 129.976 18.3044L133.631 10.4674C133.861 9.86155 134.307 9.36241 134.883 9.06687C135.434 8.85748 136.022 8.76285 136.611 8.78876H140.644C141.637 8.78876 142.184 8.92781 142.452 9.26553C142.899 9.81184 142.501 10.6462 142.372 10.9243L138.727 18.7514C138.307 19.706 137.773 20.6065 137.138 21.4333L137.048 21.5227L136.949 21.6021ZM76.8949 18.4832C77.2258 18.5009 77.5574 18.5009 77.8882 18.4832H82.7653C83.9174 18.4783 85.0612 18.2871 86.1524 17.9171L87.0066 17.5992C87.3542 16.8244 88.129 15.2253 88.2283 15.0167C90.3341 11.3316 93.5623 10.8448 96.4428 10.8448H106.972C107.26 10.8618 107.549 10.8195 107.821 10.7204C108.093 10.6213 108.341 10.4676 108.551 10.2688C108.613 10.2063 108.654 10.1267 108.67 10.0403C108.67 10.0403 108.481 9.89131 108.005 9.88138H80.8879L76.9843 18.215L76.8949 18.4832ZM178.588 22.7146H156.288C153.785 22.7146 152.216 22.3074 151.481 21.4829C150.746 20.6585 150.776 19.1587 151.729 17.1324L154.659 10.8349C155.33 9.19792 156.493 7.80963 157.987 6.86178C159.763 6.0037 161.729 5.61392 163.698 5.72943H180.495C182.998 5.72943 184.577 6.12675 185.332 6.96111C186.087 7.79547 186.057 9.27546 185.113 11.3018L182.68 16.5463H164.205L163.658 17.6985C163.561 17.8521 163.529 18.0378 163.569 18.215C163.569 18.215 163.798 18.523 164.95 18.523H175.608C176.998 18.523 177.962 18.5229 178.488 18.4336C179.244 18.312 179.986 18.1157 180.703 17.8475L182.273 17.3111L178.588 22.7146ZM163.688 6.82205C161.914 6.71939 160.142 7.06078 158.533 7.81534C157.241 8.65035 156.238 9.86466 155.663 11.2918L152.683 17.5992C151.958 19.1388 151.818 20.2215 152.265 20.738C152.712 21.2545 153.577 21.5922 156.239 21.5922H177.972L179.491 19.3474C179.166 19.4332 178.833 19.493 178.498 19.5262C177.507 19.6054 176.512 19.6353 175.518 19.6156H164.95C163.738 19.6156 162.963 19.3573 162.625 18.8011C162.489 18.5603 162.417 18.2883 162.417 18.0114C162.417 17.7346 162.489 17.4625 162.625 17.2218L163.46 15.4239H181.925L184.07 10.825C184.786 9.2854 184.925 8.20272 184.468 7.68621C184.011 7.1697 183.127 6.82205 180.495 6.82205H163.688ZM23.7641 22.7146H6.74909C4.01755 22.7146 2.25944 22.1981 1.35555 21.1353C0.451657 20.0725 0.481456 18.0859 1.6436 15.5928L5.8154 6.6532C6.70408 4.58257 8.19591 2.82766 10.0965 1.61723C12.1471 0.481296 14.4683 -0.0749614 16.8111 0.00811228H33.8956C36.6867 0.00811228 38.4846 0.554412 39.3984 1.67683C40.3917 2.8489 40.2427 4.65669 39.0706 7.12997L34.9087 16.0695C34.0209 18.1545 32.5212 19.921 30.6078 21.1353C28.5145 22.2697 26.1528 22.8155 23.774 22.7146H23.7641ZM16.7614 1.12059C14.6213 1.03552 12.4987 1.53699 10.6229 2.57079C8.89925 3.6626 7.54824 5.25263 6.74909 7.12997L2.58722 16.0695C1.59394 18.1455 1.47474 19.6156 2.14024 20.4301C2.80574 21.2446 4.32547 21.6121 6.67956 21.6121H23.774C25.9409 21.705 28.0927 21.2108 30.0019 20.1817C31.7204 19.078 33.0668 17.4824 33.8658 15.6027L38.0277 6.66312C39.0209 4.67655 39.1401 3.18662 38.4945 2.39199C37.8489 1.59736 36.2497 1.12059 33.8459 1.12059H16.7614ZM11.2785 20.6089C10.0555 20.6859 8.84385 20.3347 7.85164 19.6156C7.50344 19.3389 7.2301 18.9794 7.05659 18.5699C6.88308 18.1604 6.81492 17.714 6.85835 17.2714C7.04708 14.4902 10.603 10.5171 15.9271 7.15977C23.0986 2.63038 30.8263 0.812662 33.4387 3.03762C33.7833 3.31509 34.0543 3.67325 34.2275 4.08039C34.4008 4.48753 34.471 4.93111 34.432 5.37185C34.2532 8.16298 30.6972 12.1262 25.3732 15.4835C20.2677 18.7614 14.904 20.6089 11.2785 20.6089ZM30.0814 3.24622C26.9029 3.24622 21.7974 4.84541 16.5528 8.15305C10.8315 11.7587 8.13969 15.3941 8.00063 17.4005C7.96941 17.6633 8.00389 17.9297 8.10097 18.1759C8.19805 18.422 8.3547 18.6403 8.55687 18.811C10.5434 20.4797 17.4964 19.1785 24.7772 14.5995C30.4986 10.9839 33.1904 7.34848 33.3195 5.35198C33.3544 5.08898 33.3217 4.82141 33.2243 4.5746C33.127 4.32778 32.9683 4.10989 32.7632 3.94152C31.9746 3.41101 31.0284 3.16571 30.0814 3.24622ZM103.426 19.6255H100.237C99.5106 19.7169 98.7741 19.5668 98.1413 19.1984C97.8433 18.9401 97.5751 18.4236 98.0122 17.48L98.8863 15.6027C99.3929 14.52 100.555 13.9638 102.363 13.9638H108.124L106.694 17.0628C106.394 17.8442 105.93 18.5521 105.333 19.1388C104.766 19.5013 104.097 19.6719 103.426 19.6255ZM98.8962 18.374C99.3302 18.5059 99.7848 18.5565 100.237 18.523H103.426C103.854 18.5641 104.285 18.4703 104.657 18.2548C105.096 17.7704 105.434 17.203 105.651 16.5861L106.346 15.0763H102.323C100.992 15.0763 100.158 15.414 99.8597 16.0695L98.9757 17.9469C98.9211 18.0825 98.8941 18.2277 98.8962 18.374ZM173.393 13.4075H164.403L165.784 10.4277C166.005 9.85956 166.421 9.38807 166.956 9.09667C167.446 8.87734 167.979 8.77206 168.516 8.78876H173.045C173.335 8.74764 173.632 8.78383 173.904 8.8937C174.176 9.00356 174.414 9.18321 174.595 9.41453C174.723 9.63984 174.791 9.89493 174.791 10.1545C174.791 10.4141 174.723 10.6692 174.595 10.8945L173.393 13.4075ZM166.152 12.2951H172.677L173.542 10.4475C173.691 10.1396 173.661 10.0304 173.661 10.0204C173.468 9.93324 173.255 9.89896 173.045 9.9211H168.516C168.148 9.90829 167.782 9.97609 167.443 10.1198C167.141 10.3033 166.91 10.5833 166.787 10.9144L166.152 12.2951Z" fill="white"/>
  <path d="M186.693 33.9487C186.677 34.7445 186.35 35.5023 185.782 36.0595C185.213 36.6167 184.449 36.9287 183.653 36.9286L1.88187 36.9783L2.36858 37.455V30.0253C2.38415 29.2312 2.70988 28.4748 3.27607 27.9179C3.84226 27.361 4.60393 27.0478 5.3981 27.0454H187.169L186.683 26.5587L186.693 33.9487ZM187.189 26.0024H5.41797C4.36422 26.0024 3.35364 26.421 2.60853 27.1661C1.86342 27.9113 1.44482 28.9218 1.44482 29.9756V37.9219H1.93154H183.703C184.757 37.9219 185.767 37.5033 186.512 36.7582C187.257 36.0131 187.676 35.0025 187.676 33.9487V26.0024H187.189Z" fill="#010101"/>
  <path d="M18.3012 29.2007C18.8972 29.2007 19.1951 29.3795 19.1951 29.747C19.1951 30.1145 18.8972 30.2834 18.3012 30.2834H11.2489V31.6938H18.3012C18.8972 31.6938 19.1951 31.8726 19.1951 32.2401C19.1951 32.6077 18.8972 32.7765 18.3012 32.7765H11.2489V34.7631C11.2489 35.1207 10.9509 35.2995 10.3549 35.2995C9.75892 35.2995 9.46094 35.1207 9.46094 34.7631V29.7966C9.46094 29.5384 9.69933 29.2603 10.3549 29.2603H18.3012" fill="#010101"/>
  <path d="M38.2165 34.7433C38.2165 35.1009 37.9284 35.2797 37.3324 35.2797C36.7365 35.2797 36.4385 35.1009 36.4385 34.7433V29.7769C36.4385 29.4193 36.7365 29.2405 37.3324 29.2405C37.9284 29.2405 38.2165 29.4193 38.2165 29.7769V34.7433Z" fill="#010101"/>
  <path d="M66.1378 29.747C66.1378 30.1046 65.8299 30.2834 65.2339 30.2834H62.1548V34.7432C62.1548 35.1008 61.8568 35.2796 61.2608 35.2796C60.6648 35.2796 60.3669 35.1008 60.3669 34.7432V30.2834H57.3075C56.7116 30.2834 56.4136 30.1046 56.4136 29.747C56.4136 29.3795 56.7116 29.2007 57.3075 29.2007H65.2538C65.8399 29.2007 66.1478 29.3795 66.1478 29.747" fill="#010101"/>
  <path d="M93.3535 34.7631C93.3535 35.1803 93.0356 35.4981 92.4397 35.3789C92.0026 35.2995 90.0955 34.2565 86.7481 32.0117L85.4171 31.1177V34.7432C85.4171 35.1008 85.1192 35.2796 84.5232 35.2796C83.9371 35.2796 83.6392 35.1008 83.6392 34.7432V29.7073C83.6392 28.714 84.6324 29.1212 84.6324 29.1212C85.0099 29.2802 87.0859 30.5118 91.0987 33.1441L91.6152 33.4818V29.7371C91.6152 29.3795 91.9033 29.2007 92.4893 29.2007C93.0754 29.2007 93.3932 29.3795 93.3932 29.7371V34.7631" fill="#010101"/>
  <path d="M121.285 34.7333C121.285 35.1009 120.987 35.2797 120.391 35.2797H112.445C112.196 35.2797 111.571 35.2797 111.551 34.7433V29.7769C111.551 29.2604 112.057 29.2504 112.445 29.2405H120.391C120.987 29.2405 121.285 29.4193 121.285 29.7868C121.285 30.1543 120.987 30.3232 120.391 30.3232H113.339V31.7336H120.391C120.987 31.7336 121.285 31.9124 121.285 32.2799C121.285 32.6474 120.987 32.8163 120.391 32.8163H113.339V34.2268H120.391C120.987 34.2268 121.285 34.4155 121.285 34.7731" fill="#010101"/>
  <path d="M148.56 34.7432C148.56 35.2001 148.054 35.2796 147.666 35.2796H139.72C139.124 35.2796 138.826 35.1008 138.826 34.7333C138.826 34.3658 139.124 34.187 139.72 34.187H146.802V32.8063H139.651C138.945 32.8063 138.836 32.4984 138.836 32.1408V29.7271C138.836 29.2503 139.492 29.2106 139.73 29.2007H147.676C148.272 29.2007 148.57 29.3795 148.57 29.747C148.57 30.1145 148.272 30.2834 147.676 30.2834H140.624V31.7236H147.796C148.64 31.7236 148.61 32.1905 148.61 32.5481V34.7432" fill="#010101"/>
  <path d="M176.233 34.7432C176.233 35.2001 175.737 35.2796 175.339 35.2796H167.393C166.797 35.2796 166.499 35.1008 166.499 34.7333C166.499 34.3658 166.797 34.187 167.393 34.187H174.445V32.8063H167.314C166.618 32.8063 166.499 32.4984 166.499 32.1408V29.7271C166.499 29.2503 167.155 29.2106 167.393 29.2007H175.339C175.935 29.2007 176.233 29.3795 176.233 29.747C176.233 30.1145 175.935 30.2834 175.339 30.2834H168.297V31.7236H175.419C176.273 31.7236 176.233 32.1905 176.233 32.5481V34.7432Z" fill="#010101"/>
  <path d="M183.624 19.6354C183.955 19.6314 184.28 19.7262 184.557 19.9076C184.834 20.089 185.051 20.3488 185.18 20.6539C185.309 20.9591 185.345 21.2957 185.282 21.621C185.219 21.9462 185.06 22.2454 184.827 22.4804C184.593 22.7154 184.295 22.8755 183.97 22.9404C183.645 23.0053 183.309 22.972 183.003 22.8448C182.697 22.7175 182.436 22.5021 182.253 22.226C182.069 21.9498 181.973 21.6255 181.975 21.2942C181.972 21.0764 182.013 20.8604 182.095 20.6586C182.176 20.4568 182.298 20.2733 182.451 20.1189C182.605 19.9644 182.787 19.8421 182.989 19.7591C183.19 19.6761 183.406 19.634 183.624 19.6354ZM183.624 19.8936C183.342 19.8797 183.063 19.9505 182.822 20.0968C182.581 20.2431 182.389 20.4582 182.272 20.7144C182.154 20.9706 182.116 21.2561 182.163 21.5341C182.209 21.8122 182.338 22.0699 182.532 22.2742C182.726 22.4785 182.977 22.6199 183.252 22.6802C183.528 22.7405 183.815 22.7169 184.077 22.6125C184.338 22.5081 184.563 22.3277 184.721 22.0944C184.879 21.8612 184.964 21.586 184.965 21.3041C184.971 21.1229 184.942 20.9422 184.877 20.7727C184.813 20.6031 184.716 20.4481 184.591 20.3167C184.466 20.1853 184.316 20.0802 184.15 20.0075C183.984 19.9349 183.805 19.8961 183.624 19.8936ZM183.316 22.2576H183.028V20.4101C183.2 20.3975 183.372 20.3975 183.544 20.4101C183.746 20.3968 183.947 20.4453 184.12 20.5492C184.177 20.5939 184.222 20.6515 184.251 20.7172C184.28 20.7829 184.293 20.8548 184.289 20.9266C184.29 21.032 184.255 21.1344 184.19 21.2174C184.125 21.3003 184.034 21.3589 183.932 21.3835C184.09 21.3835 184.2 21.5624 184.239 21.8305C184.252 21.9886 184.293 22.1432 184.359 22.2874H184.051C183.978 22.1415 183.935 21.983 183.922 21.8206C183.919 21.7721 183.907 21.7247 183.885 21.6813C183.864 21.6379 183.833 21.5996 183.796 21.5687C183.758 21.5378 183.715 21.5151 183.668 21.502C183.621 21.489 183.572 21.4858 183.524 21.4928H183.316V22.2576ZM183.316 21.2644H183.554C183.792 21.2644 184.001 21.175 184.001 20.9465C184.001 20.7181 183.882 20.6287 183.554 20.6287H183.336L183.316 21.2644Z" fill="#010101"/>
</svg>