<svg width="162" height="26" viewBox="0 0 162 26" fill="none" xmlns="http://www.w3.org/2000/svg">
  <path d="M14.7923 3.82596C15.1425 1.99381 16.7861 0.431092 18.6452 0.0808271C18.8877 0.0269402 18.726 0 18.6452 0H14.4959C12.3673 0 10.2927 1.72437 9.88855 3.79902L5.73926 25.246H6.76311C8.89164 25.246 10.9663 23.5486 11.3704 21.447L14.7923 3.82596Z" fill="#03AFCC"/>
  <path d="M43.7832 0H30.8504C28.7218 0 26.6472 1.72437 26.243 3.79902L22.0938 25.246H24.7612C26.8897 25.246 28.9643 23.5486 29.3685 21.447L32.467 5.44257C32.5748 4.93065 33.0867 4.49955 33.6255 4.49955H39.7148C40.2536 4.49955 40.6039 4.93065 40.4961 5.44257L39.4723 10.6696C39.3645 11.1815 38.8526 11.6126 38.3137 11.6126H32.2245L32.0898 12.2593C31.6856 14.3609 33.0867 16.0583 35.2422 16.0583H40.6578C42.7863 16.0583 44.861 14.3339 45.2651 12.2593L46.9087 3.79902C47.3398 1.72437 45.9387 0 43.7832 0Z" fill="#424242"/>
  <path d="M105.592 24.5722C105.996 22.4707 104.595 20.7732 102.439 20.7732H96.7271C96.1883 20.7732 95.838 20.3421 95.9458 19.8302L98.7209 5.46935C98.8287 4.95742 99.3406 4.52632 99.8795 4.52632H105.592C107.72 4.52632 109.795 2.80194 110.199 0.727297L110.334 0.0537109H97.1043C94.9758 0.0537109 92.9012 1.77809 92.497 3.85274L89.1021 21.5007C88.698 23.6023 90.099 25.2997 92.2545 25.2997H105.457L105.592 24.5722Z" fill="#424242"/>
  <path d="M114.725 19.8304L117.5 5.44257C117.608 4.93065 118.12 4.49955 118.659 4.49955H124.748C125.287 4.49955 125.637 4.93065 125.529 5.44257L122.754 19.8304C122.646 20.3423 122.134 20.7734 121.596 20.7734H115.506C114.994 20.7734 114.644 20.3423 114.725 19.8304ZM129.248 0H115.911C113.782 0 111.707 1.72437 111.303 3.79902L107.908 21.447C107.504 23.5486 108.932 25.246 111.061 25.246H124.398C126.526 25.246 128.601 23.5216 129.005 21.447L132.427 3.79902C132.804 1.72437 131.376 0 129.248 0Z" fill="#424242"/>
  <path d="M68.4634 12.2593L70.107 3.79902C70.5111 1.69743 69.1101 0 66.9546 0H54.0218C51.8932 0 49.8186 1.72437 49.4144 3.79902L45.2651 25.246H51.8124L55.6384 5.41563C55.7461 4.87676 56.2581 4.47261 56.7969 4.47261H62.8862C63.425 4.47261 63.7753 4.9037 63.6675 5.41563L62.6437 10.6427C62.5359 11.1546 62.024 11.5857 61.4851 11.5857H55.3959L55.2612 12.2323C55.1803 12.6634 55.0995 13.5526 55.4767 14.2531L61.7006 25.2191H68.679L63.4789 16.0314H63.8292C65.9846 16.0852 68.0593 14.3609 68.4634 12.2593Z" fill="#424242"/>
  <path d="M153.928 12.2593L155.571 3.79902C155.976 1.69743 154.548 0 152.419 0H139.486C137.358 0 135.283 1.72437 134.879 3.79902L130.729 25.246H137.277L141.103 5.41563C141.21 4.87676 141.722 4.47261 142.261 4.47261H148.351C148.889 4.47261 149.24 4.9037 149.132 5.41563L148.108 10.6427C148 11.1546 147.488 11.5857 146.949 11.5857H140.887L140.752 12.2323C140.672 12.6634 140.591 13.5526 140.968 14.2531L147.192 25.2191H154.17L148.97 16.0852H149.32C151.449 16.0852 153.524 14.3609 153.928 12.2593Z" fill="#424242"/>
  <path d="M23.7912 3.82596C24.1415 1.99381 25.785 0.458035 27.6172 0.0808271C27.8866 0.0269402 27.7249 0 27.6441 0H21.8782C19.7497 0 17.675 1.72437 17.2709 3.79902L13.1216 25.246H15.762C17.8906 25.246 19.9652 23.5486 20.3694 21.447L23.7912 3.82596Z" fill="#026496"/>
  <path d="M4.14929 3.82596L0 25.2191C1.91298 24.9227 3.63737 23.36 3.98763 21.4739L7.40945 3.82596C7.75971 1.99381 9.40326 0.431092 11.2624 0.0808271C11.5049 0.0269402 11.3162 0 11.2624 0H8.78356C6.62809 0 4.55344 1.72438 4.14929 3.82596Z" fill="#8ED7F4"/>
  <path d="M77.6507 0C75.5222 0 73.4476 1.72437 73.0434 3.79902L69.6485 21.447C69.2444 23.5486 70.6724 25.246 72.8009 25.246H86.6768L86.8115 24.5724C87.2157 22.4708 85.8146 20.7734 83.6591 20.7734H77.2735C76.7347 20.7734 76.3844 20.3423 76.4922 19.8304L77.4621 14.8189H86.3804L87.2426 10.4002H78.3243L79.2943 5.46952C79.4021 4.95759 79.914 4.5265 80.4529 4.5265H86.8385C88.967 4.5265 91.0416 2.80211 91.4458 0.727468L91.5805 0.053882H77.6507V0Z" fill="#424242"/>
  <path d="M159.37 0.0268555C160.637 0.0268555 161.66 1.05071 161.66 2.31705C161.66 3.58339 160.637 4.60724 159.37 4.60724C158.104 4.60724 157.08 3.58339 157.08 2.31705C157.08 1.05071 158.104 0.0268555 159.37 0.0268555ZM159.37 4.06837C160.34 4.06837 161.095 3.28701 161.095 2.34399C161.095 1.37403 160.313 0.619615 159.37 0.619615C158.4 0.619615 157.646 1.40097 157.646 2.34399C157.646 3.28701 158.4 4.06837 159.37 4.06837ZM159.02 3.31396C159.02 3.47562 158.966 3.61034 158.751 3.61034C158.535 3.61034 158.481 3.50256 158.481 3.31396V1.40097C158.481 1.26626 158.535 1.13154 158.778 1.13154H159.478C159.99 1.13154 160.394 1.2932 160.394 1.85901C160.394 2.29011 160.179 2.5326 159.774 2.5326L160.206 3.26007C160.232 3.31396 160.232 3.36784 160.232 3.39479C160.232 3.5295 160.152 3.61034 159.936 3.61034C159.747 3.61034 159.667 3.44868 159.586 3.31396L159.182 2.58648H158.993V3.31396H159.02ZM159.478 2.12845C159.694 2.12845 159.801 2.07456 159.801 1.85901C159.801 1.64347 159.694 1.58958 159.478 1.58958H159.02V2.15539H159.478V2.12845Z" fill="#424242"/>
</svg>